G04 #@! TF.GenerationSoftware,KiCad,Pcbnew,(5.0.2)-1*
G04 #@! TF.CreationDate,2020-10-12T20:59:33+02:00*
G04 #@! TF.ProjectId,TinkerShieldPaddle,54696e6b-6572-4536-9869-656c64506164,rev?*
G04 #@! TF.SameCoordinates,Original*
G04 #@! TF.FileFunction,Paste,Bot*
G04 #@! TF.FilePolarity,Positive*
%FSLAX46Y46*%
G04 Gerber Fmt 4.6, Leading zero omitted, Abs format (unit mm)*
G04 Created by KiCad (PCBNEW (5.0.2)-1) date 12.10.2020 20:59:33*
%MOMM*%
%LPD*%
G01*
G04 APERTURE LIST*
%ADD10R,1.500000X2.000000*%
%ADD11C,0.100000*%
%ADD12C,1.150000*%
%ADD13R,1.560000X0.650000*%
G04 APERTURE END LIST*
D10*
G04 #@! TO.C,J3*
X164250000Y-130700000D03*
X156250000Y-130700000D03*
X156250000Y-121800000D03*
X164250000Y-121800000D03*
G04 #@! TD*
D11*
G04 #@! TO.C,D2*
G36*
X151974505Y-133876204D02*
X151998773Y-133879804D01*
X152022572Y-133885765D01*
X152045671Y-133894030D01*
X152067850Y-133904520D01*
X152088893Y-133917132D01*
X152108599Y-133931747D01*
X152126777Y-133948223D01*
X152143253Y-133966401D01*
X152157868Y-133986107D01*
X152170480Y-134007150D01*
X152180970Y-134029329D01*
X152189235Y-134052428D01*
X152195196Y-134076227D01*
X152198796Y-134100495D01*
X152200000Y-134124999D01*
X152200000Y-134775001D01*
X152198796Y-134799505D01*
X152195196Y-134823773D01*
X152189235Y-134847572D01*
X152180970Y-134870671D01*
X152170480Y-134892850D01*
X152157868Y-134913893D01*
X152143253Y-134933599D01*
X152126777Y-134951777D01*
X152108599Y-134968253D01*
X152088893Y-134982868D01*
X152067850Y-134995480D01*
X152045671Y-135005970D01*
X152022572Y-135014235D01*
X151998773Y-135020196D01*
X151974505Y-135023796D01*
X151950001Y-135025000D01*
X151049999Y-135025000D01*
X151025495Y-135023796D01*
X151001227Y-135020196D01*
X150977428Y-135014235D01*
X150954329Y-135005970D01*
X150932150Y-134995480D01*
X150911107Y-134982868D01*
X150891401Y-134968253D01*
X150873223Y-134951777D01*
X150856747Y-134933599D01*
X150842132Y-134913893D01*
X150829520Y-134892850D01*
X150819030Y-134870671D01*
X150810765Y-134847572D01*
X150804804Y-134823773D01*
X150801204Y-134799505D01*
X150800000Y-134775001D01*
X150800000Y-134124999D01*
X150801204Y-134100495D01*
X150804804Y-134076227D01*
X150810765Y-134052428D01*
X150819030Y-134029329D01*
X150829520Y-134007150D01*
X150842132Y-133986107D01*
X150856747Y-133966401D01*
X150873223Y-133948223D01*
X150891401Y-133931747D01*
X150911107Y-133917132D01*
X150932150Y-133904520D01*
X150954329Y-133894030D01*
X150977428Y-133885765D01*
X151001227Y-133879804D01*
X151025495Y-133876204D01*
X151049999Y-133875000D01*
X151950001Y-133875000D01*
X151974505Y-133876204D01*
X151974505Y-133876204D01*
G37*
D12*
X151500000Y-134450000D03*
D11*
G36*
X151974505Y-135926204D02*
X151998773Y-135929804D01*
X152022572Y-135935765D01*
X152045671Y-135944030D01*
X152067850Y-135954520D01*
X152088893Y-135967132D01*
X152108599Y-135981747D01*
X152126777Y-135998223D01*
X152143253Y-136016401D01*
X152157868Y-136036107D01*
X152170480Y-136057150D01*
X152180970Y-136079329D01*
X152189235Y-136102428D01*
X152195196Y-136126227D01*
X152198796Y-136150495D01*
X152200000Y-136174999D01*
X152200000Y-136825001D01*
X152198796Y-136849505D01*
X152195196Y-136873773D01*
X152189235Y-136897572D01*
X152180970Y-136920671D01*
X152170480Y-136942850D01*
X152157868Y-136963893D01*
X152143253Y-136983599D01*
X152126777Y-137001777D01*
X152108599Y-137018253D01*
X152088893Y-137032868D01*
X152067850Y-137045480D01*
X152045671Y-137055970D01*
X152022572Y-137064235D01*
X151998773Y-137070196D01*
X151974505Y-137073796D01*
X151950001Y-137075000D01*
X151049999Y-137075000D01*
X151025495Y-137073796D01*
X151001227Y-137070196D01*
X150977428Y-137064235D01*
X150954329Y-137055970D01*
X150932150Y-137045480D01*
X150911107Y-137032868D01*
X150891401Y-137018253D01*
X150873223Y-137001777D01*
X150856747Y-136983599D01*
X150842132Y-136963893D01*
X150829520Y-136942850D01*
X150819030Y-136920671D01*
X150810765Y-136897572D01*
X150804804Y-136873773D01*
X150801204Y-136849505D01*
X150800000Y-136825001D01*
X150800000Y-136174999D01*
X150801204Y-136150495D01*
X150804804Y-136126227D01*
X150810765Y-136102428D01*
X150819030Y-136079329D01*
X150829520Y-136057150D01*
X150842132Y-136036107D01*
X150856747Y-136016401D01*
X150873223Y-135998223D01*
X150891401Y-135981747D01*
X150911107Y-135967132D01*
X150932150Y-135954520D01*
X150954329Y-135944030D01*
X150977428Y-135935765D01*
X151001227Y-135929804D01*
X151025495Y-135926204D01*
X151049999Y-135925000D01*
X151950001Y-135925000D01*
X151974505Y-135926204D01*
X151974505Y-135926204D01*
G37*
D12*
X151500000Y-136500000D03*
G04 #@! TD*
D11*
G04 #@! TO.C,D1*
G36*
X151974505Y-139951204D02*
X151998773Y-139954804D01*
X152022572Y-139960765D01*
X152045671Y-139969030D01*
X152067850Y-139979520D01*
X152088893Y-139992132D01*
X152108599Y-140006747D01*
X152126777Y-140023223D01*
X152143253Y-140041401D01*
X152157868Y-140061107D01*
X152170480Y-140082150D01*
X152180970Y-140104329D01*
X152189235Y-140127428D01*
X152195196Y-140151227D01*
X152198796Y-140175495D01*
X152200000Y-140199999D01*
X152200000Y-140850001D01*
X152198796Y-140874505D01*
X152195196Y-140898773D01*
X152189235Y-140922572D01*
X152180970Y-140945671D01*
X152170480Y-140967850D01*
X152157868Y-140988893D01*
X152143253Y-141008599D01*
X152126777Y-141026777D01*
X152108599Y-141043253D01*
X152088893Y-141057868D01*
X152067850Y-141070480D01*
X152045671Y-141080970D01*
X152022572Y-141089235D01*
X151998773Y-141095196D01*
X151974505Y-141098796D01*
X151950001Y-141100000D01*
X151049999Y-141100000D01*
X151025495Y-141098796D01*
X151001227Y-141095196D01*
X150977428Y-141089235D01*
X150954329Y-141080970D01*
X150932150Y-141070480D01*
X150911107Y-141057868D01*
X150891401Y-141043253D01*
X150873223Y-141026777D01*
X150856747Y-141008599D01*
X150842132Y-140988893D01*
X150829520Y-140967850D01*
X150819030Y-140945671D01*
X150810765Y-140922572D01*
X150804804Y-140898773D01*
X150801204Y-140874505D01*
X150800000Y-140850001D01*
X150800000Y-140199999D01*
X150801204Y-140175495D01*
X150804804Y-140151227D01*
X150810765Y-140127428D01*
X150819030Y-140104329D01*
X150829520Y-140082150D01*
X150842132Y-140061107D01*
X150856747Y-140041401D01*
X150873223Y-140023223D01*
X150891401Y-140006747D01*
X150911107Y-139992132D01*
X150932150Y-139979520D01*
X150954329Y-139969030D01*
X150977428Y-139960765D01*
X151001227Y-139954804D01*
X151025495Y-139951204D01*
X151049999Y-139950000D01*
X151950001Y-139950000D01*
X151974505Y-139951204D01*
X151974505Y-139951204D01*
G37*
D12*
X151500000Y-140525000D03*
D11*
G36*
X151974505Y-137901204D02*
X151998773Y-137904804D01*
X152022572Y-137910765D01*
X152045671Y-137919030D01*
X152067850Y-137929520D01*
X152088893Y-137942132D01*
X152108599Y-137956747D01*
X152126777Y-137973223D01*
X152143253Y-137991401D01*
X152157868Y-138011107D01*
X152170480Y-138032150D01*
X152180970Y-138054329D01*
X152189235Y-138077428D01*
X152195196Y-138101227D01*
X152198796Y-138125495D01*
X152200000Y-138149999D01*
X152200000Y-138800001D01*
X152198796Y-138824505D01*
X152195196Y-138848773D01*
X152189235Y-138872572D01*
X152180970Y-138895671D01*
X152170480Y-138917850D01*
X152157868Y-138938893D01*
X152143253Y-138958599D01*
X152126777Y-138976777D01*
X152108599Y-138993253D01*
X152088893Y-139007868D01*
X152067850Y-139020480D01*
X152045671Y-139030970D01*
X152022572Y-139039235D01*
X151998773Y-139045196D01*
X151974505Y-139048796D01*
X151950001Y-139050000D01*
X151049999Y-139050000D01*
X151025495Y-139048796D01*
X151001227Y-139045196D01*
X150977428Y-139039235D01*
X150954329Y-139030970D01*
X150932150Y-139020480D01*
X150911107Y-139007868D01*
X150891401Y-138993253D01*
X150873223Y-138976777D01*
X150856747Y-138958599D01*
X150842132Y-138938893D01*
X150829520Y-138917850D01*
X150819030Y-138895671D01*
X150810765Y-138872572D01*
X150804804Y-138848773D01*
X150801204Y-138824505D01*
X150800000Y-138800001D01*
X150800000Y-138149999D01*
X150801204Y-138125495D01*
X150804804Y-138101227D01*
X150810765Y-138077428D01*
X150819030Y-138054329D01*
X150829520Y-138032150D01*
X150842132Y-138011107D01*
X150856747Y-137991401D01*
X150873223Y-137973223D01*
X150891401Y-137956747D01*
X150911107Y-137942132D01*
X150932150Y-137929520D01*
X150954329Y-137919030D01*
X150977428Y-137910765D01*
X151001227Y-137904804D01*
X151025495Y-137901204D01*
X151049999Y-137900000D01*
X151950001Y-137900000D01*
X151974505Y-137901204D01*
X151974505Y-137901204D01*
G37*
D12*
X151500000Y-138475000D03*
G04 #@! TD*
D11*
G04 #@! TO.C,C2*
G36*
X156624505Y-132801204D02*
X156648773Y-132804804D01*
X156672572Y-132810765D01*
X156695671Y-132819030D01*
X156717850Y-132829520D01*
X156738893Y-132842132D01*
X156758599Y-132856747D01*
X156776777Y-132873223D01*
X156793253Y-132891401D01*
X156807868Y-132911107D01*
X156820480Y-132932150D01*
X156830970Y-132954329D01*
X156839235Y-132977428D01*
X156845196Y-133001227D01*
X156848796Y-133025495D01*
X156850000Y-133049999D01*
X156850000Y-133950001D01*
X156848796Y-133974505D01*
X156845196Y-133998773D01*
X156839235Y-134022572D01*
X156830970Y-134045671D01*
X156820480Y-134067850D01*
X156807868Y-134088893D01*
X156793253Y-134108599D01*
X156776777Y-134126777D01*
X156758599Y-134143253D01*
X156738893Y-134157868D01*
X156717850Y-134170480D01*
X156695671Y-134180970D01*
X156672572Y-134189235D01*
X156648773Y-134195196D01*
X156624505Y-134198796D01*
X156600001Y-134200000D01*
X155949999Y-134200000D01*
X155925495Y-134198796D01*
X155901227Y-134195196D01*
X155877428Y-134189235D01*
X155854329Y-134180970D01*
X155832150Y-134170480D01*
X155811107Y-134157868D01*
X155791401Y-134143253D01*
X155773223Y-134126777D01*
X155756747Y-134108599D01*
X155742132Y-134088893D01*
X155729520Y-134067850D01*
X155719030Y-134045671D01*
X155710765Y-134022572D01*
X155704804Y-133998773D01*
X155701204Y-133974505D01*
X155700000Y-133950001D01*
X155700000Y-133049999D01*
X155701204Y-133025495D01*
X155704804Y-133001227D01*
X155710765Y-132977428D01*
X155719030Y-132954329D01*
X155729520Y-132932150D01*
X155742132Y-132911107D01*
X155756747Y-132891401D01*
X155773223Y-132873223D01*
X155791401Y-132856747D01*
X155811107Y-132842132D01*
X155832150Y-132829520D01*
X155854329Y-132819030D01*
X155877428Y-132810765D01*
X155901227Y-132804804D01*
X155925495Y-132801204D01*
X155949999Y-132800000D01*
X156600001Y-132800000D01*
X156624505Y-132801204D01*
X156624505Y-132801204D01*
G37*
D12*
X156275000Y-133500000D03*
D11*
G36*
X154574505Y-132801204D02*
X154598773Y-132804804D01*
X154622572Y-132810765D01*
X154645671Y-132819030D01*
X154667850Y-132829520D01*
X154688893Y-132842132D01*
X154708599Y-132856747D01*
X154726777Y-132873223D01*
X154743253Y-132891401D01*
X154757868Y-132911107D01*
X154770480Y-132932150D01*
X154780970Y-132954329D01*
X154789235Y-132977428D01*
X154795196Y-133001227D01*
X154798796Y-133025495D01*
X154800000Y-133049999D01*
X154800000Y-133950001D01*
X154798796Y-133974505D01*
X154795196Y-133998773D01*
X154789235Y-134022572D01*
X154780970Y-134045671D01*
X154770480Y-134067850D01*
X154757868Y-134088893D01*
X154743253Y-134108599D01*
X154726777Y-134126777D01*
X154708599Y-134143253D01*
X154688893Y-134157868D01*
X154667850Y-134170480D01*
X154645671Y-134180970D01*
X154622572Y-134189235D01*
X154598773Y-134195196D01*
X154574505Y-134198796D01*
X154550001Y-134200000D01*
X153899999Y-134200000D01*
X153875495Y-134198796D01*
X153851227Y-134195196D01*
X153827428Y-134189235D01*
X153804329Y-134180970D01*
X153782150Y-134170480D01*
X153761107Y-134157868D01*
X153741401Y-134143253D01*
X153723223Y-134126777D01*
X153706747Y-134108599D01*
X153692132Y-134088893D01*
X153679520Y-134067850D01*
X153669030Y-134045671D01*
X153660765Y-134022572D01*
X153654804Y-133998773D01*
X153651204Y-133974505D01*
X153650000Y-133950001D01*
X153650000Y-133049999D01*
X153651204Y-133025495D01*
X153654804Y-133001227D01*
X153660765Y-132977428D01*
X153669030Y-132954329D01*
X153679520Y-132932150D01*
X153692132Y-132911107D01*
X153706747Y-132891401D01*
X153723223Y-132873223D01*
X153741401Y-132856747D01*
X153761107Y-132842132D01*
X153782150Y-132829520D01*
X153804329Y-132819030D01*
X153827428Y-132810765D01*
X153851227Y-132804804D01*
X153875495Y-132801204D01*
X153899999Y-132800000D01*
X154550001Y-132800000D01*
X154574505Y-132801204D01*
X154574505Y-132801204D01*
G37*
D12*
X154225000Y-133500000D03*
G04 #@! TD*
D11*
G04 #@! TO.C,C3*
G36*
X163974505Y-135701204D02*
X163998773Y-135704804D01*
X164022572Y-135710765D01*
X164045671Y-135719030D01*
X164067850Y-135729520D01*
X164088893Y-135742132D01*
X164108599Y-135756747D01*
X164126777Y-135773223D01*
X164143253Y-135791401D01*
X164157868Y-135811107D01*
X164170480Y-135832150D01*
X164180970Y-135854329D01*
X164189235Y-135877428D01*
X164195196Y-135901227D01*
X164198796Y-135925495D01*
X164200000Y-135949999D01*
X164200000Y-136600001D01*
X164198796Y-136624505D01*
X164195196Y-136648773D01*
X164189235Y-136672572D01*
X164180970Y-136695671D01*
X164170480Y-136717850D01*
X164157868Y-136738893D01*
X164143253Y-136758599D01*
X164126777Y-136776777D01*
X164108599Y-136793253D01*
X164088893Y-136807868D01*
X164067850Y-136820480D01*
X164045671Y-136830970D01*
X164022572Y-136839235D01*
X163998773Y-136845196D01*
X163974505Y-136848796D01*
X163950001Y-136850000D01*
X163049999Y-136850000D01*
X163025495Y-136848796D01*
X163001227Y-136845196D01*
X162977428Y-136839235D01*
X162954329Y-136830970D01*
X162932150Y-136820480D01*
X162911107Y-136807868D01*
X162891401Y-136793253D01*
X162873223Y-136776777D01*
X162856747Y-136758599D01*
X162842132Y-136738893D01*
X162829520Y-136717850D01*
X162819030Y-136695671D01*
X162810765Y-136672572D01*
X162804804Y-136648773D01*
X162801204Y-136624505D01*
X162800000Y-136600001D01*
X162800000Y-135949999D01*
X162801204Y-135925495D01*
X162804804Y-135901227D01*
X162810765Y-135877428D01*
X162819030Y-135854329D01*
X162829520Y-135832150D01*
X162842132Y-135811107D01*
X162856747Y-135791401D01*
X162873223Y-135773223D01*
X162891401Y-135756747D01*
X162911107Y-135742132D01*
X162932150Y-135729520D01*
X162954329Y-135719030D01*
X162977428Y-135710765D01*
X163001227Y-135704804D01*
X163025495Y-135701204D01*
X163049999Y-135700000D01*
X163950001Y-135700000D01*
X163974505Y-135701204D01*
X163974505Y-135701204D01*
G37*
D12*
X163500000Y-136275000D03*
D11*
G36*
X163974505Y-133651204D02*
X163998773Y-133654804D01*
X164022572Y-133660765D01*
X164045671Y-133669030D01*
X164067850Y-133679520D01*
X164088893Y-133692132D01*
X164108599Y-133706747D01*
X164126777Y-133723223D01*
X164143253Y-133741401D01*
X164157868Y-133761107D01*
X164170480Y-133782150D01*
X164180970Y-133804329D01*
X164189235Y-133827428D01*
X164195196Y-133851227D01*
X164198796Y-133875495D01*
X164200000Y-133899999D01*
X164200000Y-134550001D01*
X164198796Y-134574505D01*
X164195196Y-134598773D01*
X164189235Y-134622572D01*
X164180970Y-134645671D01*
X164170480Y-134667850D01*
X164157868Y-134688893D01*
X164143253Y-134708599D01*
X164126777Y-134726777D01*
X164108599Y-134743253D01*
X164088893Y-134757868D01*
X164067850Y-134770480D01*
X164045671Y-134780970D01*
X164022572Y-134789235D01*
X163998773Y-134795196D01*
X163974505Y-134798796D01*
X163950001Y-134800000D01*
X163049999Y-134800000D01*
X163025495Y-134798796D01*
X163001227Y-134795196D01*
X162977428Y-134789235D01*
X162954329Y-134780970D01*
X162932150Y-134770480D01*
X162911107Y-134757868D01*
X162891401Y-134743253D01*
X162873223Y-134726777D01*
X162856747Y-134708599D01*
X162842132Y-134688893D01*
X162829520Y-134667850D01*
X162819030Y-134645671D01*
X162810765Y-134622572D01*
X162804804Y-134598773D01*
X162801204Y-134574505D01*
X162800000Y-134550001D01*
X162800000Y-133899999D01*
X162801204Y-133875495D01*
X162804804Y-133851227D01*
X162810765Y-133827428D01*
X162819030Y-133804329D01*
X162829520Y-133782150D01*
X162842132Y-133761107D01*
X162856747Y-133741401D01*
X162873223Y-133723223D01*
X162891401Y-133706747D01*
X162911107Y-133692132D01*
X162932150Y-133679520D01*
X162954329Y-133669030D01*
X162977428Y-133660765D01*
X163001227Y-133654804D01*
X163025495Y-133651204D01*
X163049999Y-133650000D01*
X163950001Y-133650000D01*
X163974505Y-133651204D01*
X163974505Y-133651204D01*
G37*
D12*
X163500000Y-134225000D03*
G04 #@! TD*
D13*
G04 #@! TO.C,U2*
X158400000Y-135950000D03*
X158400000Y-135000000D03*
X158400000Y-134050000D03*
X161100000Y-134050000D03*
X161100000Y-135950000D03*
G04 #@! TD*
D11*
G04 #@! TO.C,R7*
G36*
X156399505Y-137801204D02*
X156423773Y-137804804D01*
X156447572Y-137810765D01*
X156470671Y-137819030D01*
X156492850Y-137829520D01*
X156513893Y-137842132D01*
X156533599Y-137856747D01*
X156551777Y-137873223D01*
X156568253Y-137891401D01*
X156582868Y-137911107D01*
X156595480Y-137932150D01*
X156605970Y-137954329D01*
X156614235Y-137977428D01*
X156620196Y-138001227D01*
X156623796Y-138025495D01*
X156625000Y-138049999D01*
X156625000Y-138950001D01*
X156623796Y-138974505D01*
X156620196Y-138998773D01*
X156614235Y-139022572D01*
X156605970Y-139045671D01*
X156595480Y-139067850D01*
X156582868Y-139088893D01*
X156568253Y-139108599D01*
X156551777Y-139126777D01*
X156533599Y-139143253D01*
X156513893Y-139157868D01*
X156492850Y-139170480D01*
X156470671Y-139180970D01*
X156447572Y-139189235D01*
X156423773Y-139195196D01*
X156399505Y-139198796D01*
X156375001Y-139200000D01*
X155724999Y-139200000D01*
X155700495Y-139198796D01*
X155676227Y-139195196D01*
X155652428Y-139189235D01*
X155629329Y-139180970D01*
X155607150Y-139170480D01*
X155586107Y-139157868D01*
X155566401Y-139143253D01*
X155548223Y-139126777D01*
X155531747Y-139108599D01*
X155517132Y-139088893D01*
X155504520Y-139067850D01*
X155494030Y-139045671D01*
X155485765Y-139022572D01*
X155479804Y-138998773D01*
X155476204Y-138974505D01*
X155475000Y-138950001D01*
X155475000Y-138049999D01*
X155476204Y-138025495D01*
X155479804Y-138001227D01*
X155485765Y-137977428D01*
X155494030Y-137954329D01*
X155504520Y-137932150D01*
X155517132Y-137911107D01*
X155531747Y-137891401D01*
X155548223Y-137873223D01*
X155566401Y-137856747D01*
X155586107Y-137842132D01*
X155607150Y-137829520D01*
X155629329Y-137819030D01*
X155652428Y-137810765D01*
X155676227Y-137804804D01*
X155700495Y-137801204D01*
X155724999Y-137800000D01*
X156375001Y-137800000D01*
X156399505Y-137801204D01*
X156399505Y-137801204D01*
G37*
D12*
X156050000Y-138500000D03*
D11*
G36*
X154349505Y-137801204D02*
X154373773Y-137804804D01*
X154397572Y-137810765D01*
X154420671Y-137819030D01*
X154442850Y-137829520D01*
X154463893Y-137842132D01*
X154483599Y-137856747D01*
X154501777Y-137873223D01*
X154518253Y-137891401D01*
X154532868Y-137911107D01*
X154545480Y-137932150D01*
X154555970Y-137954329D01*
X154564235Y-137977428D01*
X154570196Y-138001227D01*
X154573796Y-138025495D01*
X154575000Y-138049999D01*
X154575000Y-138950001D01*
X154573796Y-138974505D01*
X154570196Y-138998773D01*
X154564235Y-139022572D01*
X154555970Y-139045671D01*
X154545480Y-139067850D01*
X154532868Y-139088893D01*
X154518253Y-139108599D01*
X154501777Y-139126777D01*
X154483599Y-139143253D01*
X154463893Y-139157868D01*
X154442850Y-139170480D01*
X154420671Y-139180970D01*
X154397572Y-139189235D01*
X154373773Y-139195196D01*
X154349505Y-139198796D01*
X154325001Y-139200000D01*
X153674999Y-139200000D01*
X153650495Y-139198796D01*
X153626227Y-139195196D01*
X153602428Y-139189235D01*
X153579329Y-139180970D01*
X153557150Y-139170480D01*
X153536107Y-139157868D01*
X153516401Y-139143253D01*
X153498223Y-139126777D01*
X153481747Y-139108599D01*
X153467132Y-139088893D01*
X153454520Y-139067850D01*
X153444030Y-139045671D01*
X153435765Y-139022572D01*
X153429804Y-138998773D01*
X153426204Y-138974505D01*
X153425000Y-138950001D01*
X153425000Y-138049999D01*
X153426204Y-138025495D01*
X153429804Y-138001227D01*
X153435765Y-137977428D01*
X153444030Y-137954329D01*
X153454520Y-137932150D01*
X153467132Y-137911107D01*
X153481747Y-137891401D01*
X153498223Y-137873223D01*
X153516401Y-137856747D01*
X153536107Y-137842132D01*
X153557150Y-137829520D01*
X153579329Y-137819030D01*
X153602428Y-137810765D01*
X153626227Y-137804804D01*
X153650495Y-137801204D01*
X153674999Y-137800000D01*
X154325001Y-137800000D01*
X154349505Y-137801204D01*
X154349505Y-137801204D01*
G37*
D12*
X154000000Y-138500000D03*
G04 #@! TD*
D11*
G04 #@! TO.C,R8*
G36*
X154349505Y-135801204D02*
X154373773Y-135804804D01*
X154397572Y-135810765D01*
X154420671Y-135819030D01*
X154442850Y-135829520D01*
X154463893Y-135842132D01*
X154483599Y-135856747D01*
X154501777Y-135873223D01*
X154518253Y-135891401D01*
X154532868Y-135911107D01*
X154545480Y-135932150D01*
X154555970Y-135954329D01*
X154564235Y-135977428D01*
X154570196Y-136001227D01*
X154573796Y-136025495D01*
X154575000Y-136049999D01*
X154575000Y-136950001D01*
X154573796Y-136974505D01*
X154570196Y-136998773D01*
X154564235Y-137022572D01*
X154555970Y-137045671D01*
X154545480Y-137067850D01*
X154532868Y-137088893D01*
X154518253Y-137108599D01*
X154501777Y-137126777D01*
X154483599Y-137143253D01*
X154463893Y-137157868D01*
X154442850Y-137170480D01*
X154420671Y-137180970D01*
X154397572Y-137189235D01*
X154373773Y-137195196D01*
X154349505Y-137198796D01*
X154325001Y-137200000D01*
X153674999Y-137200000D01*
X153650495Y-137198796D01*
X153626227Y-137195196D01*
X153602428Y-137189235D01*
X153579329Y-137180970D01*
X153557150Y-137170480D01*
X153536107Y-137157868D01*
X153516401Y-137143253D01*
X153498223Y-137126777D01*
X153481747Y-137108599D01*
X153467132Y-137088893D01*
X153454520Y-137067850D01*
X153444030Y-137045671D01*
X153435765Y-137022572D01*
X153429804Y-136998773D01*
X153426204Y-136974505D01*
X153425000Y-136950001D01*
X153425000Y-136049999D01*
X153426204Y-136025495D01*
X153429804Y-136001227D01*
X153435765Y-135977428D01*
X153444030Y-135954329D01*
X153454520Y-135932150D01*
X153467132Y-135911107D01*
X153481747Y-135891401D01*
X153498223Y-135873223D01*
X153516401Y-135856747D01*
X153536107Y-135842132D01*
X153557150Y-135829520D01*
X153579329Y-135819030D01*
X153602428Y-135810765D01*
X153626227Y-135804804D01*
X153650495Y-135801204D01*
X153674999Y-135800000D01*
X154325001Y-135800000D01*
X154349505Y-135801204D01*
X154349505Y-135801204D01*
G37*
D12*
X154000000Y-136500000D03*
D11*
G36*
X156399505Y-135801204D02*
X156423773Y-135804804D01*
X156447572Y-135810765D01*
X156470671Y-135819030D01*
X156492850Y-135829520D01*
X156513893Y-135842132D01*
X156533599Y-135856747D01*
X156551777Y-135873223D01*
X156568253Y-135891401D01*
X156582868Y-135911107D01*
X156595480Y-135932150D01*
X156605970Y-135954329D01*
X156614235Y-135977428D01*
X156620196Y-136001227D01*
X156623796Y-136025495D01*
X156625000Y-136049999D01*
X156625000Y-136950001D01*
X156623796Y-136974505D01*
X156620196Y-136998773D01*
X156614235Y-137022572D01*
X156605970Y-137045671D01*
X156595480Y-137067850D01*
X156582868Y-137088893D01*
X156568253Y-137108599D01*
X156551777Y-137126777D01*
X156533599Y-137143253D01*
X156513893Y-137157868D01*
X156492850Y-137170480D01*
X156470671Y-137180970D01*
X156447572Y-137189235D01*
X156423773Y-137195196D01*
X156399505Y-137198796D01*
X156375001Y-137200000D01*
X155724999Y-137200000D01*
X155700495Y-137198796D01*
X155676227Y-137195196D01*
X155652428Y-137189235D01*
X155629329Y-137180970D01*
X155607150Y-137170480D01*
X155586107Y-137157868D01*
X155566401Y-137143253D01*
X155548223Y-137126777D01*
X155531747Y-137108599D01*
X155517132Y-137088893D01*
X155504520Y-137067850D01*
X155494030Y-137045671D01*
X155485765Y-137022572D01*
X155479804Y-136998773D01*
X155476204Y-136974505D01*
X155475000Y-136950001D01*
X155475000Y-136049999D01*
X155476204Y-136025495D01*
X155479804Y-136001227D01*
X155485765Y-135977428D01*
X155494030Y-135954329D01*
X155504520Y-135932150D01*
X155517132Y-135911107D01*
X155531747Y-135891401D01*
X155548223Y-135873223D01*
X155566401Y-135856747D01*
X155586107Y-135842132D01*
X155607150Y-135829520D01*
X155629329Y-135819030D01*
X155652428Y-135810765D01*
X155676227Y-135804804D01*
X155700495Y-135801204D01*
X155724999Y-135800000D01*
X156375001Y-135800000D01*
X156399505Y-135801204D01*
X156399505Y-135801204D01*
G37*
D12*
X156050000Y-136500000D03*
G04 #@! TD*
D11*
G04 #@! TO.C,R2*
G36*
X163974505Y-137401204D02*
X163998773Y-137404804D01*
X164022572Y-137410765D01*
X164045671Y-137419030D01*
X164067850Y-137429520D01*
X164088893Y-137442132D01*
X164108599Y-137456747D01*
X164126777Y-137473223D01*
X164143253Y-137491401D01*
X164157868Y-137511107D01*
X164170480Y-137532150D01*
X164180970Y-137554329D01*
X164189235Y-137577428D01*
X164195196Y-137601227D01*
X164198796Y-137625495D01*
X164200000Y-137649999D01*
X164200000Y-138300001D01*
X164198796Y-138324505D01*
X164195196Y-138348773D01*
X164189235Y-138372572D01*
X164180970Y-138395671D01*
X164170480Y-138417850D01*
X164157868Y-138438893D01*
X164143253Y-138458599D01*
X164126777Y-138476777D01*
X164108599Y-138493253D01*
X164088893Y-138507868D01*
X164067850Y-138520480D01*
X164045671Y-138530970D01*
X164022572Y-138539235D01*
X163998773Y-138545196D01*
X163974505Y-138548796D01*
X163950001Y-138550000D01*
X163049999Y-138550000D01*
X163025495Y-138548796D01*
X163001227Y-138545196D01*
X162977428Y-138539235D01*
X162954329Y-138530970D01*
X162932150Y-138520480D01*
X162911107Y-138507868D01*
X162891401Y-138493253D01*
X162873223Y-138476777D01*
X162856747Y-138458599D01*
X162842132Y-138438893D01*
X162829520Y-138417850D01*
X162819030Y-138395671D01*
X162810765Y-138372572D01*
X162804804Y-138348773D01*
X162801204Y-138324505D01*
X162800000Y-138300001D01*
X162800000Y-137649999D01*
X162801204Y-137625495D01*
X162804804Y-137601227D01*
X162810765Y-137577428D01*
X162819030Y-137554329D01*
X162829520Y-137532150D01*
X162842132Y-137511107D01*
X162856747Y-137491401D01*
X162873223Y-137473223D01*
X162891401Y-137456747D01*
X162911107Y-137442132D01*
X162932150Y-137429520D01*
X162954329Y-137419030D01*
X162977428Y-137410765D01*
X163001227Y-137404804D01*
X163025495Y-137401204D01*
X163049999Y-137400000D01*
X163950001Y-137400000D01*
X163974505Y-137401204D01*
X163974505Y-137401204D01*
G37*
D12*
X163500000Y-137975000D03*
D11*
G36*
X163974505Y-139451204D02*
X163998773Y-139454804D01*
X164022572Y-139460765D01*
X164045671Y-139469030D01*
X164067850Y-139479520D01*
X164088893Y-139492132D01*
X164108599Y-139506747D01*
X164126777Y-139523223D01*
X164143253Y-139541401D01*
X164157868Y-139561107D01*
X164170480Y-139582150D01*
X164180970Y-139604329D01*
X164189235Y-139627428D01*
X164195196Y-139651227D01*
X164198796Y-139675495D01*
X164200000Y-139699999D01*
X164200000Y-140350001D01*
X164198796Y-140374505D01*
X164195196Y-140398773D01*
X164189235Y-140422572D01*
X164180970Y-140445671D01*
X164170480Y-140467850D01*
X164157868Y-140488893D01*
X164143253Y-140508599D01*
X164126777Y-140526777D01*
X164108599Y-140543253D01*
X164088893Y-140557868D01*
X164067850Y-140570480D01*
X164045671Y-140580970D01*
X164022572Y-140589235D01*
X163998773Y-140595196D01*
X163974505Y-140598796D01*
X163950001Y-140600000D01*
X163049999Y-140600000D01*
X163025495Y-140598796D01*
X163001227Y-140595196D01*
X162977428Y-140589235D01*
X162954329Y-140580970D01*
X162932150Y-140570480D01*
X162911107Y-140557868D01*
X162891401Y-140543253D01*
X162873223Y-140526777D01*
X162856747Y-140508599D01*
X162842132Y-140488893D01*
X162829520Y-140467850D01*
X162819030Y-140445671D01*
X162810765Y-140422572D01*
X162804804Y-140398773D01*
X162801204Y-140374505D01*
X162800000Y-140350001D01*
X162800000Y-139699999D01*
X162801204Y-139675495D01*
X162804804Y-139651227D01*
X162810765Y-139627428D01*
X162819030Y-139604329D01*
X162829520Y-139582150D01*
X162842132Y-139561107D01*
X162856747Y-139541401D01*
X162873223Y-139523223D01*
X162891401Y-139506747D01*
X162911107Y-139492132D01*
X162932150Y-139479520D01*
X162954329Y-139469030D01*
X162977428Y-139460765D01*
X163001227Y-139454804D01*
X163025495Y-139451204D01*
X163049999Y-139450000D01*
X163950001Y-139450000D01*
X163974505Y-139451204D01*
X163974505Y-139451204D01*
G37*
D12*
X163500000Y-140025000D03*
G04 #@! TD*
D11*
G04 #@! TO.C,R4*
G36*
X161574505Y-141301204D02*
X161598773Y-141304804D01*
X161622572Y-141310765D01*
X161645671Y-141319030D01*
X161667850Y-141329520D01*
X161688893Y-141342132D01*
X161708599Y-141356747D01*
X161726777Y-141373223D01*
X161743253Y-141391401D01*
X161757868Y-141411107D01*
X161770480Y-141432150D01*
X161780970Y-141454329D01*
X161789235Y-141477428D01*
X161795196Y-141501227D01*
X161798796Y-141525495D01*
X161800000Y-141549999D01*
X161800000Y-142450001D01*
X161798796Y-142474505D01*
X161795196Y-142498773D01*
X161789235Y-142522572D01*
X161780970Y-142545671D01*
X161770480Y-142567850D01*
X161757868Y-142588893D01*
X161743253Y-142608599D01*
X161726777Y-142626777D01*
X161708599Y-142643253D01*
X161688893Y-142657868D01*
X161667850Y-142670480D01*
X161645671Y-142680970D01*
X161622572Y-142689235D01*
X161598773Y-142695196D01*
X161574505Y-142698796D01*
X161550001Y-142700000D01*
X160899999Y-142700000D01*
X160875495Y-142698796D01*
X160851227Y-142695196D01*
X160827428Y-142689235D01*
X160804329Y-142680970D01*
X160782150Y-142670480D01*
X160761107Y-142657868D01*
X160741401Y-142643253D01*
X160723223Y-142626777D01*
X160706747Y-142608599D01*
X160692132Y-142588893D01*
X160679520Y-142567850D01*
X160669030Y-142545671D01*
X160660765Y-142522572D01*
X160654804Y-142498773D01*
X160651204Y-142474505D01*
X160650000Y-142450001D01*
X160650000Y-141549999D01*
X160651204Y-141525495D01*
X160654804Y-141501227D01*
X160660765Y-141477428D01*
X160669030Y-141454329D01*
X160679520Y-141432150D01*
X160692132Y-141411107D01*
X160706747Y-141391401D01*
X160723223Y-141373223D01*
X160741401Y-141356747D01*
X160761107Y-141342132D01*
X160782150Y-141329520D01*
X160804329Y-141319030D01*
X160827428Y-141310765D01*
X160851227Y-141304804D01*
X160875495Y-141301204D01*
X160899999Y-141300000D01*
X161550001Y-141300000D01*
X161574505Y-141301204D01*
X161574505Y-141301204D01*
G37*
D12*
X161225000Y-142000000D03*
D11*
G36*
X163624505Y-141301204D02*
X163648773Y-141304804D01*
X163672572Y-141310765D01*
X163695671Y-141319030D01*
X163717850Y-141329520D01*
X163738893Y-141342132D01*
X163758599Y-141356747D01*
X163776777Y-141373223D01*
X163793253Y-141391401D01*
X163807868Y-141411107D01*
X163820480Y-141432150D01*
X163830970Y-141454329D01*
X163839235Y-141477428D01*
X163845196Y-141501227D01*
X163848796Y-141525495D01*
X163850000Y-141549999D01*
X163850000Y-142450001D01*
X163848796Y-142474505D01*
X163845196Y-142498773D01*
X163839235Y-142522572D01*
X163830970Y-142545671D01*
X163820480Y-142567850D01*
X163807868Y-142588893D01*
X163793253Y-142608599D01*
X163776777Y-142626777D01*
X163758599Y-142643253D01*
X163738893Y-142657868D01*
X163717850Y-142670480D01*
X163695671Y-142680970D01*
X163672572Y-142689235D01*
X163648773Y-142695196D01*
X163624505Y-142698796D01*
X163600001Y-142700000D01*
X162949999Y-142700000D01*
X162925495Y-142698796D01*
X162901227Y-142695196D01*
X162877428Y-142689235D01*
X162854329Y-142680970D01*
X162832150Y-142670480D01*
X162811107Y-142657868D01*
X162791401Y-142643253D01*
X162773223Y-142626777D01*
X162756747Y-142608599D01*
X162742132Y-142588893D01*
X162729520Y-142567850D01*
X162719030Y-142545671D01*
X162710765Y-142522572D01*
X162704804Y-142498773D01*
X162701204Y-142474505D01*
X162700000Y-142450001D01*
X162700000Y-141549999D01*
X162701204Y-141525495D01*
X162704804Y-141501227D01*
X162710765Y-141477428D01*
X162719030Y-141454329D01*
X162729520Y-141432150D01*
X162742132Y-141411107D01*
X162756747Y-141391401D01*
X162773223Y-141373223D01*
X162791401Y-141356747D01*
X162811107Y-141342132D01*
X162832150Y-141329520D01*
X162854329Y-141319030D01*
X162877428Y-141310765D01*
X162901227Y-141304804D01*
X162925495Y-141301204D01*
X162949999Y-141300000D01*
X163600001Y-141300000D01*
X163624505Y-141301204D01*
X163624505Y-141301204D01*
G37*
D12*
X163275000Y-142000000D03*
G04 #@! TD*
M02*
