G04 #@! TF.GenerationSoftware,KiCad,Pcbnew,(5.0.2)-1*
G04 #@! TF.CreationDate,2020-09-16T07:35:29+02:00*
G04 #@! TF.ProjectId,TinkerShieldPaddle,54696e6b-6572-4536-9869-656c64506164,rev?*
G04 #@! TF.SameCoordinates,Original*
G04 #@! TF.FileFunction,Legend,Top*
G04 #@! TF.FilePolarity,Positive*
%FSLAX46Y46*%
G04 Gerber Fmt 4.6, Leading zero omitted, Abs format (unit mm)*
G04 Created by KiCad (PCBNEW (5.0.2)-1) date 16.09.2020 07:35:29*
%MOMM*%
%LPD*%
G01*
G04 APERTURE LIST*
%ADD10C,0.120000*%
%ADD11C,0.150000*%
G04 APERTURE END LIST*
D10*
G04 #@! TO.C,R1*
X153960000Y-145511252D02*
X153960000Y-144988748D01*
X152540000Y-145511252D02*
X152540000Y-144988748D01*
G04 #@! TO.C,R3*
X164540000Y-141761252D02*
X164540000Y-141238748D01*
X165960000Y-141761252D02*
X165960000Y-141238748D01*
G04 #@! TO.C,C1*
X157290000Y-141261252D02*
X157290000Y-140738748D01*
X158710000Y-141261252D02*
X158710000Y-140738748D01*
G04 #@! TO.C,J6*
X154800000Y-146670000D02*
X154800000Y-149330000D01*
X162480000Y-146670000D02*
X154800000Y-146670000D01*
X162480000Y-149330000D02*
X154800000Y-149330000D01*
X162480000Y-146670000D02*
X162480000Y-149330000D01*
X163750000Y-146670000D02*
X165080000Y-146670000D01*
X165080000Y-146670000D02*
X165080000Y-148000000D01*
G04 #@! TO.C,J2*
X165255000Y-138410000D02*
X167915000Y-138410000D01*
X165255000Y-128190000D02*
X165255000Y-138410000D01*
X167915000Y-128190000D02*
X167915000Y-138410000D01*
X165255000Y-128190000D02*
X167915000Y-128190000D01*
X165255000Y-126920000D02*
X165255000Y-125590000D01*
X165255000Y-125590000D02*
X166585000Y-125590000D01*
G04 #@! TO.C,C4*
X155511252Y-134460000D02*
X154988748Y-134460000D01*
X155511252Y-133040000D02*
X154988748Y-133040000D01*
G04 #@! TO.C,J5*
X154800000Y-143420000D02*
X154800000Y-146080000D01*
X162480000Y-143420000D02*
X154800000Y-143420000D01*
X162480000Y-146080000D02*
X154800000Y-146080000D01*
X162480000Y-143420000D02*
X162480000Y-146080000D01*
X163750000Y-143420000D02*
X165080000Y-143420000D01*
X165080000Y-143420000D02*
X165080000Y-144750000D01*
G04 #@! TO.C,J1*
X153080000Y-125630000D02*
X150420000Y-125630000D01*
X153080000Y-128230000D02*
X153080000Y-125630000D01*
X150420000Y-128230000D02*
X150420000Y-125630000D01*
X153080000Y-128230000D02*
X150420000Y-128230000D01*
X153080000Y-129500000D02*
X153080000Y-130830000D01*
X153080000Y-130830000D02*
X151750000Y-130830000D01*
G04 #@! TO.C,J4*
X155245000Y-125590000D02*
X152585000Y-125590000D01*
X155245000Y-128190000D02*
X155245000Y-125590000D01*
X152585000Y-128190000D02*
X152585000Y-125590000D01*
X155245000Y-128190000D02*
X152585000Y-128190000D01*
X155245000Y-129460000D02*
X155245000Y-130790000D01*
X155245000Y-130790000D02*
X153915000Y-130790000D01*
D11*
G04 #@! TO.C,U1*
X154050000Y-141625000D02*
X154050000Y-142700000D01*
X157125000Y-141625000D02*
X157125000Y-138375000D01*
X153875000Y-141625000D02*
X153875000Y-138375000D01*
X157125000Y-141625000D02*
X156850000Y-141625000D01*
X157125000Y-138375000D02*
X156850000Y-138375000D01*
X153875000Y-138375000D02*
X154150000Y-138375000D01*
X153875000Y-141625000D02*
X154050000Y-141625000D01*
G04 #@! TO.C,U3*
X160875000Y-141625000D02*
X161050000Y-141625000D01*
X160875000Y-138375000D02*
X161150000Y-138375000D01*
X164125000Y-138375000D02*
X163850000Y-138375000D01*
X164125000Y-141625000D02*
X163850000Y-141625000D01*
X160875000Y-141625000D02*
X160875000Y-138375000D01*
X164125000Y-141625000D02*
X164125000Y-138375000D01*
X161050000Y-141625000D02*
X161050000Y-142700000D01*
D10*
G04 #@! TO.C,Q1*
X164330000Y-123740000D02*
X164330000Y-125200000D01*
X161170000Y-123740000D02*
X161170000Y-125900000D01*
X161170000Y-123740000D02*
X162100000Y-123740000D01*
X164330000Y-123740000D02*
X163400000Y-123740000D01*
G04 #@! TO.C,Q2*
X158990000Y-127670000D02*
X158990000Y-128600000D01*
X158990000Y-130830000D02*
X158990000Y-129900000D01*
X158990000Y-130830000D02*
X161150000Y-130830000D01*
X158990000Y-127670000D02*
X160450000Y-127670000D01*
G04 #@! TO.C,R5*
X159040000Y-138738748D02*
X159040000Y-139261252D01*
X160460000Y-138738748D02*
X160460000Y-139261252D01*
G04 #@! TO.C,R6*
X155511252Y-136210000D02*
X154988748Y-136210000D01*
X155511252Y-134790000D02*
X154988748Y-134790000D01*
G04 #@! TO.C,R1*
D11*
X152052380Y-145416666D02*
X151576190Y-145750000D01*
X152052380Y-145988095D02*
X151052380Y-145988095D01*
X151052380Y-145607142D01*
X151100000Y-145511904D01*
X151147619Y-145464285D01*
X151242857Y-145416666D01*
X151385714Y-145416666D01*
X151480952Y-145464285D01*
X151528571Y-145511904D01*
X151576190Y-145607142D01*
X151576190Y-145988095D01*
X152052380Y-144464285D02*
X152052380Y-145035714D01*
X152052380Y-144750000D02*
X151052380Y-144750000D01*
X151195238Y-144845238D01*
X151290476Y-144940476D01*
X151338095Y-145035714D01*
G04 #@! TO.C,R3*
X164052380Y-141666666D02*
X163576190Y-142000000D01*
X164052380Y-142238095D02*
X163052380Y-142238095D01*
X163052380Y-141857142D01*
X163100000Y-141761904D01*
X163147619Y-141714285D01*
X163242857Y-141666666D01*
X163385714Y-141666666D01*
X163480952Y-141714285D01*
X163528571Y-141761904D01*
X163576190Y-141857142D01*
X163576190Y-142238095D01*
X163052380Y-141333333D02*
X163052380Y-140714285D01*
X163433333Y-141047619D01*
X163433333Y-140904761D01*
X163480952Y-140809523D01*
X163528571Y-140761904D01*
X163623809Y-140714285D01*
X163861904Y-140714285D01*
X163957142Y-140761904D01*
X164004761Y-140809523D01*
X164052380Y-140904761D01*
X164052380Y-141190476D01*
X164004761Y-141285714D01*
X163957142Y-141333333D01*
G04 #@! TO.C,C1*
X156707142Y-141166666D02*
X156754761Y-141214285D01*
X156802380Y-141357142D01*
X156802380Y-141452380D01*
X156754761Y-141595238D01*
X156659523Y-141690476D01*
X156564285Y-141738095D01*
X156373809Y-141785714D01*
X156230952Y-141785714D01*
X156040476Y-141738095D01*
X155945238Y-141690476D01*
X155850000Y-141595238D01*
X155802380Y-141452380D01*
X155802380Y-141357142D01*
X155850000Y-141214285D01*
X155897619Y-141166666D01*
X156802380Y-140214285D02*
X156802380Y-140785714D01*
X156802380Y-140500000D02*
X155802380Y-140500000D01*
X155945238Y-140595238D01*
X156040476Y-140690476D01*
X156088095Y-140785714D01*
G04 #@! TO.C,J6*
X165532380Y-148333333D02*
X166246666Y-148333333D01*
X166389523Y-148380952D01*
X166484761Y-148476190D01*
X166532380Y-148619047D01*
X166532380Y-148714285D01*
X165532380Y-147428571D02*
X165532380Y-147619047D01*
X165580000Y-147714285D01*
X165627619Y-147761904D01*
X165770476Y-147857142D01*
X165960952Y-147904761D01*
X166341904Y-147904761D01*
X166437142Y-147857142D01*
X166484761Y-147809523D01*
X166532380Y-147714285D01*
X166532380Y-147523809D01*
X166484761Y-147428571D01*
X166437142Y-147380952D01*
X166341904Y-147333333D01*
X166103809Y-147333333D01*
X166008571Y-147380952D01*
X165960952Y-147428571D01*
X165913333Y-147523809D01*
X165913333Y-147714285D01*
X165960952Y-147809523D01*
X166008571Y-147857142D01*
X166103809Y-147904761D01*
G04 #@! TO.C,J2*
X166251666Y-124042380D02*
X166251666Y-124756666D01*
X166204047Y-124899523D01*
X166108809Y-124994761D01*
X165965952Y-125042380D01*
X165870714Y-125042380D01*
X166680238Y-124137619D02*
X166727857Y-124090000D01*
X166823095Y-124042380D01*
X167061190Y-124042380D01*
X167156428Y-124090000D01*
X167204047Y-124137619D01*
X167251666Y-124232857D01*
X167251666Y-124328095D01*
X167204047Y-124470952D01*
X166632619Y-125042380D01*
X167251666Y-125042380D01*
G04 #@! TO.C,C4*
X155083333Y-135757142D02*
X155035714Y-135804761D01*
X154892857Y-135852380D01*
X154797619Y-135852380D01*
X154654761Y-135804761D01*
X154559523Y-135709523D01*
X154511904Y-135614285D01*
X154464285Y-135423809D01*
X154464285Y-135280952D01*
X154511904Y-135090476D01*
X154559523Y-134995238D01*
X154654761Y-134900000D01*
X154797619Y-134852380D01*
X154892857Y-134852380D01*
X155035714Y-134900000D01*
X155083333Y-134947619D01*
X155940476Y-135185714D02*
X155940476Y-135852380D01*
X155702380Y-134804761D02*
X155464285Y-135519047D01*
X156083333Y-135519047D01*
G04 #@! TO.C,J5*
X165532380Y-145083333D02*
X166246666Y-145083333D01*
X166389523Y-145130952D01*
X166484761Y-145226190D01*
X166532380Y-145369047D01*
X166532380Y-145464285D01*
X165532380Y-144130952D02*
X165532380Y-144607142D01*
X166008571Y-144654761D01*
X165960952Y-144607142D01*
X165913333Y-144511904D01*
X165913333Y-144273809D01*
X165960952Y-144178571D01*
X166008571Y-144130952D01*
X166103809Y-144083333D01*
X166341904Y-144083333D01*
X166437142Y-144130952D01*
X166484761Y-144178571D01*
X166532380Y-144273809D01*
X166532380Y-144511904D01*
X166484761Y-144607142D01*
X166437142Y-144654761D01*
G04 #@! TO.C,J1*
X151416666Y-131282380D02*
X151416666Y-131996666D01*
X151369047Y-132139523D01*
X151273809Y-132234761D01*
X151130952Y-132282380D01*
X151035714Y-132282380D01*
X152416666Y-132282380D02*
X151845238Y-132282380D01*
X152130952Y-132282380D02*
X152130952Y-131282380D01*
X152035714Y-131425238D01*
X151940476Y-131520476D01*
X151845238Y-131568095D01*
G04 #@! TO.C,J4*
X153581666Y-131242380D02*
X153581666Y-131956666D01*
X153534047Y-132099523D01*
X153438809Y-132194761D01*
X153295952Y-132242380D01*
X153200714Y-132242380D01*
X154486428Y-131575714D02*
X154486428Y-132242380D01*
X154248333Y-131194761D02*
X154010238Y-131909047D01*
X154629285Y-131909047D01*
G04 #@! TO.C,U1*
X152402380Y-140761904D02*
X153211904Y-140761904D01*
X153307142Y-140714285D01*
X153354761Y-140666666D01*
X153402380Y-140571428D01*
X153402380Y-140380952D01*
X153354761Y-140285714D01*
X153307142Y-140238095D01*
X153211904Y-140190476D01*
X152402380Y-140190476D01*
X153402380Y-139190476D02*
X153402380Y-139761904D01*
X153402380Y-139476190D02*
X152402380Y-139476190D01*
X152545238Y-139571428D01*
X152640476Y-139666666D01*
X152688095Y-139761904D01*
G04 #@! TO.C,U3*
X159402380Y-140761904D02*
X160211904Y-140761904D01*
X160307142Y-140714285D01*
X160354761Y-140666666D01*
X160402380Y-140571428D01*
X160402380Y-140380952D01*
X160354761Y-140285714D01*
X160307142Y-140238095D01*
X160211904Y-140190476D01*
X159402380Y-140190476D01*
X159402380Y-139809523D02*
X159402380Y-139190476D01*
X159783333Y-139523809D01*
X159783333Y-139380952D01*
X159830952Y-139285714D01*
X159878571Y-139238095D01*
X159973809Y-139190476D01*
X160211904Y-139190476D01*
X160307142Y-139238095D01*
X160354761Y-139285714D01*
X160402380Y-139380952D01*
X160402380Y-139666666D01*
X160354761Y-139761904D01*
X160307142Y-139809523D01*
G04 #@! TO.C,Q1*
X160797619Y-124595238D02*
X160750000Y-124690476D01*
X160654761Y-124785714D01*
X160511904Y-124928571D01*
X160464285Y-125023809D01*
X160464285Y-125119047D01*
X160702380Y-125071428D02*
X160654761Y-125166666D01*
X160559523Y-125261904D01*
X160369047Y-125309523D01*
X160035714Y-125309523D01*
X159845238Y-125261904D01*
X159750000Y-125166666D01*
X159702380Y-125071428D01*
X159702380Y-124880952D01*
X159750000Y-124785714D01*
X159845238Y-124690476D01*
X160035714Y-124642857D01*
X160369047Y-124642857D01*
X160559523Y-124690476D01*
X160654761Y-124785714D01*
X160702380Y-124880952D01*
X160702380Y-125071428D01*
X160702380Y-123690476D02*
X160702380Y-124261904D01*
X160702380Y-123976190D02*
X159702380Y-123976190D01*
X159845238Y-124071428D01*
X159940476Y-124166666D01*
X159988095Y-124261904D01*
G04 #@! TO.C,Q2*
X159654761Y-132297619D02*
X159559523Y-132250000D01*
X159464285Y-132154761D01*
X159321428Y-132011904D01*
X159226190Y-131964285D01*
X159130952Y-131964285D01*
X159178571Y-132202380D02*
X159083333Y-132154761D01*
X158988095Y-132059523D01*
X158940476Y-131869047D01*
X158940476Y-131535714D01*
X158988095Y-131345238D01*
X159083333Y-131250000D01*
X159178571Y-131202380D01*
X159369047Y-131202380D01*
X159464285Y-131250000D01*
X159559523Y-131345238D01*
X159607142Y-131535714D01*
X159607142Y-131869047D01*
X159559523Y-132059523D01*
X159464285Y-132154761D01*
X159369047Y-132202380D01*
X159178571Y-132202380D01*
X159988095Y-131297619D02*
X160035714Y-131250000D01*
X160130952Y-131202380D01*
X160369047Y-131202380D01*
X160464285Y-131250000D01*
X160511904Y-131297619D01*
X160559523Y-131392857D01*
X160559523Y-131488095D01*
X160511904Y-131630952D01*
X159940476Y-132202380D01*
X160559523Y-132202380D01*
G04 #@! TO.C,R5*
X161852380Y-139166666D02*
X161376190Y-139500000D01*
X161852380Y-139738095D02*
X160852380Y-139738095D01*
X160852380Y-139357142D01*
X160900000Y-139261904D01*
X160947619Y-139214285D01*
X161042857Y-139166666D01*
X161185714Y-139166666D01*
X161280952Y-139214285D01*
X161328571Y-139261904D01*
X161376190Y-139357142D01*
X161376190Y-139738095D01*
X160852380Y-138261904D02*
X160852380Y-138738095D01*
X161328571Y-138785714D01*
X161280952Y-138738095D01*
X161233333Y-138642857D01*
X161233333Y-138404761D01*
X161280952Y-138309523D01*
X161328571Y-138261904D01*
X161423809Y-138214285D01*
X161661904Y-138214285D01*
X161757142Y-138261904D01*
X161804761Y-138309523D01*
X161852380Y-138404761D01*
X161852380Y-138642857D01*
X161804761Y-138738095D01*
X161757142Y-138785714D01*
G04 #@! TO.C,R6*
X155083333Y-137602380D02*
X154750000Y-137126190D01*
X154511904Y-137602380D02*
X154511904Y-136602380D01*
X154892857Y-136602380D01*
X154988095Y-136650000D01*
X155035714Y-136697619D01*
X155083333Y-136792857D01*
X155083333Y-136935714D01*
X155035714Y-137030952D01*
X154988095Y-137078571D01*
X154892857Y-137126190D01*
X154511904Y-137126190D01*
X155940476Y-136602380D02*
X155750000Y-136602380D01*
X155654761Y-136650000D01*
X155607142Y-136697619D01*
X155511904Y-136840476D01*
X155464285Y-137030952D01*
X155464285Y-137411904D01*
X155511904Y-137507142D01*
X155559523Y-137554761D01*
X155654761Y-137602380D01*
X155845238Y-137602380D01*
X155940476Y-137554761D01*
X155988095Y-137507142D01*
X156035714Y-137411904D01*
X156035714Y-137173809D01*
X155988095Y-137078571D01*
X155940476Y-137030952D01*
X155845238Y-136983333D01*
X155654761Y-136983333D01*
X155559523Y-137030952D01*
X155511904Y-137078571D01*
X155464285Y-137173809D01*
G04 #@! TO.C,REF\002A\002A*
X151416666Y-117752380D02*
X151083333Y-117276190D01*
X150845238Y-117752380D02*
X150845238Y-116752380D01*
X151226190Y-116752380D01*
X151321428Y-116800000D01*
X151369047Y-116847619D01*
X151416666Y-116942857D01*
X151416666Y-117085714D01*
X151369047Y-117180952D01*
X151321428Y-117228571D01*
X151226190Y-117276190D01*
X150845238Y-117276190D01*
X151845238Y-117228571D02*
X152178571Y-117228571D01*
X152321428Y-117752380D02*
X151845238Y-117752380D01*
X151845238Y-116752380D01*
X152321428Y-116752380D01*
X153083333Y-117228571D02*
X152750000Y-117228571D01*
X152750000Y-117752380D02*
X152750000Y-116752380D01*
X153226190Y-116752380D01*
X153750000Y-116752380D02*
X153750000Y-116990476D01*
X153511904Y-116895238D02*
X153750000Y-116990476D01*
X153988095Y-116895238D01*
X153607142Y-117180952D02*
X153750000Y-116990476D01*
X153892857Y-117180952D01*
X154511904Y-116752380D02*
X154511904Y-116990476D01*
X154273809Y-116895238D02*
X154511904Y-116990476D01*
X154750000Y-116895238D01*
X154369047Y-117180952D02*
X154511904Y-116990476D01*
X154654761Y-117180952D01*
X166166666Y-117752380D02*
X165833333Y-117276190D01*
X165595238Y-117752380D02*
X165595238Y-116752380D01*
X165976190Y-116752380D01*
X166071428Y-116800000D01*
X166119047Y-116847619D01*
X166166666Y-116942857D01*
X166166666Y-117085714D01*
X166119047Y-117180952D01*
X166071428Y-117228571D01*
X165976190Y-117276190D01*
X165595238Y-117276190D01*
X166595238Y-117228571D02*
X166928571Y-117228571D01*
X167071428Y-117752380D02*
X166595238Y-117752380D01*
X166595238Y-116752380D01*
X167071428Y-116752380D01*
X167833333Y-117228571D02*
X167500000Y-117228571D01*
X167500000Y-117752380D02*
X167500000Y-116752380D01*
X167976190Y-116752380D01*
X168500000Y-116752380D02*
X168500000Y-116990476D01*
X168261904Y-116895238D02*
X168500000Y-116990476D01*
X168738095Y-116895238D01*
X168357142Y-117180952D02*
X168500000Y-116990476D01*
X168642857Y-117180952D01*
X169261904Y-116752380D02*
X169261904Y-116990476D01*
X169023809Y-116895238D02*
X169261904Y-116990476D01*
X169500000Y-116895238D01*
X169119047Y-117180952D02*
X169261904Y-116990476D01*
X169404761Y-117180952D01*
X166166666Y-147002380D02*
X165833333Y-146526190D01*
X165595238Y-147002380D02*
X165595238Y-146002380D01*
X165976190Y-146002380D01*
X166071428Y-146050000D01*
X166119047Y-146097619D01*
X166166666Y-146192857D01*
X166166666Y-146335714D01*
X166119047Y-146430952D01*
X166071428Y-146478571D01*
X165976190Y-146526190D01*
X165595238Y-146526190D01*
X166595238Y-146478571D02*
X166928571Y-146478571D01*
X167071428Y-147002380D02*
X166595238Y-147002380D01*
X166595238Y-146002380D01*
X167071428Y-146002380D01*
X167833333Y-146478571D02*
X167500000Y-146478571D01*
X167500000Y-147002380D02*
X167500000Y-146002380D01*
X167976190Y-146002380D01*
X168500000Y-146002380D02*
X168500000Y-146240476D01*
X168261904Y-146145238D02*
X168500000Y-146240476D01*
X168738095Y-146145238D01*
X168357142Y-146430952D02*
X168500000Y-146240476D01*
X168642857Y-146430952D01*
X169261904Y-146002380D02*
X169261904Y-146240476D01*
X169023809Y-146145238D02*
X169261904Y-146240476D01*
X169500000Y-146145238D01*
X169119047Y-146430952D02*
X169261904Y-146240476D01*
X169404761Y-146430952D01*
X151416666Y-147002380D02*
X151083333Y-146526190D01*
X150845238Y-147002380D02*
X150845238Y-146002380D01*
X151226190Y-146002380D01*
X151321428Y-146050000D01*
X151369047Y-146097619D01*
X151416666Y-146192857D01*
X151416666Y-146335714D01*
X151369047Y-146430952D01*
X151321428Y-146478571D01*
X151226190Y-146526190D01*
X150845238Y-146526190D01*
X151845238Y-146478571D02*
X152178571Y-146478571D01*
X152321428Y-147002380D02*
X151845238Y-147002380D01*
X151845238Y-146002380D01*
X152321428Y-146002380D01*
X153083333Y-146478571D02*
X152750000Y-146478571D01*
X152750000Y-147002380D02*
X152750000Y-146002380D01*
X153226190Y-146002380D01*
X153750000Y-146002380D02*
X153750000Y-146240476D01*
X153511904Y-146145238D02*
X153750000Y-146240476D01*
X153988095Y-146145238D01*
X153607142Y-146430952D02*
X153750000Y-146240476D01*
X153892857Y-146430952D01*
X154511904Y-146002380D02*
X154511904Y-146240476D01*
X154273809Y-146145238D02*
X154511904Y-146240476D01*
X154750000Y-146145238D01*
X154369047Y-146430952D02*
X154511904Y-146240476D01*
X154654761Y-146430952D01*
G04 #@! TD*
M02*
