G04 #@! TF.GenerationSoftware,KiCad,Pcbnew,(5.0.2)-1*
G04 #@! TF.CreationDate,2020-10-12T20:59:33+02:00*
G04 #@! TF.ProjectId,TinkerShieldPaddle,54696e6b-6572-4536-9869-656c64506164,rev?*
G04 #@! TF.SameCoordinates,Original*
G04 #@! TF.FileFunction,Legend,Bot*
G04 #@! TF.FilePolarity,Positive*
%FSLAX46Y46*%
G04 Gerber Fmt 4.6, Leading zero omitted, Abs format (unit mm)*
G04 Created by KiCad (PCBNEW (5.0.2)-1) date 12.10.2020 20:59:33*
%MOMM*%
%LPD*%
G01*
G04 APERTURE LIST*
%ADD10C,0.120000*%
%ADD11C,0.150000*%
G04 APERTURE END LIST*
D10*
G04 #@! TO.C,D2*
X150540000Y-136475000D02*
X150540000Y-133615000D01*
X150540000Y-133615000D02*
X152460000Y-133615000D01*
X152460000Y-133615000D02*
X152460000Y-136475000D01*
G04 #@! TO.C,D1*
X152460000Y-137640000D02*
X152460000Y-140500000D01*
X150540000Y-137640000D02*
X152460000Y-137640000D01*
X150540000Y-140500000D02*
X150540000Y-137640000D01*
G04 #@! TO.C,C2*
X154988748Y-132790000D02*
X155511252Y-132790000D01*
X154988748Y-134210000D02*
X155511252Y-134210000D01*
G04 #@! TO.C,C3*
X164210000Y-135511252D02*
X164210000Y-134988748D01*
X162790000Y-135511252D02*
X162790000Y-134988748D01*
G04 #@! TO.C,JP1*
X160250000Y-139450000D02*
G75*
G03X160950000Y-140150000I700000J0D01*
G01*
X161550000Y-140150000D02*
G75*
G03X162250000Y-139450000I0J700000D01*
G01*
X162250000Y-138050000D02*
G75*
G03X161550000Y-137350000I-700000J0D01*
G01*
X160950000Y-137350000D02*
G75*
G03X160250000Y-138050000I0J-700000D01*
G01*
X161550000Y-137350000D02*
X160950000Y-137350000D01*
X162250000Y-139450000D02*
X162250000Y-138050000D01*
X160950000Y-140150000D02*
X161550000Y-140150000D01*
X160250000Y-138050000D02*
X160250000Y-139450000D01*
G04 #@! TO.C,U2*
X158850000Y-133390000D02*
X160650000Y-133390000D01*
X160650000Y-136610000D02*
X158200000Y-136610000D01*
G04 #@! TO.C,R7*
X154763748Y-137790000D02*
X155286252Y-137790000D01*
X154763748Y-139210000D02*
X155286252Y-139210000D01*
G04 #@! TO.C,R8*
X154763748Y-137210000D02*
X155286252Y-137210000D01*
X154763748Y-135790000D02*
X155286252Y-135790000D01*
G04 #@! TO.C,R2*
X162790000Y-138738748D02*
X162790000Y-139261252D01*
X164210000Y-138738748D02*
X164210000Y-139261252D01*
G04 #@! TO.C,R4*
X161988748Y-142710000D02*
X162511252Y-142710000D01*
X161988748Y-141290000D02*
X162511252Y-141290000D01*
G04 #@! TO.C,J3*
D11*
X160583333Y-120792380D02*
X160583333Y-121506666D01*
X160630952Y-121649523D01*
X160726190Y-121744761D01*
X160869047Y-121792380D01*
X160964285Y-121792380D01*
X160202380Y-120792380D02*
X159583333Y-120792380D01*
X159916666Y-121173333D01*
X159773809Y-121173333D01*
X159678571Y-121220952D01*
X159630952Y-121268571D01*
X159583333Y-121363809D01*
X159583333Y-121601904D01*
X159630952Y-121697142D01*
X159678571Y-121744761D01*
X159773809Y-121792380D01*
X160059523Y-121792380D01*
X160154761Y-121744761D01*
X160202380Y-121697142D01*
G04 #@! TO.C,D2*
X150302380Y-134736904D02*
X149302380Y-134736904D01*
X149302380Y-134975000D01*
X149350000Y-135117857D01*
X149445238Y-135213095D01*
X149540476Y-135260714D01*
X149730952Y-135308333D01*
X149873809Y-135308333D01*
X150064285Y-135260714D01*
X150159523Y-135213095D01*
X150254761Y-135117857D01*
X150302380Y-134975000D01*
X150302380Y-134736904D01*
X149397619Y-135689285D02*
X149350000Y-135736904D01*
X149302380Y-135832142D01*
X149302380Y-136070238D01*
X149350000Y-136165476D01*
X149397619Y-136213095D01*
X149492857Y-136260714D01*
X149588095Y-136260714D01*
X149730952Y-136213095D01*
X150302380Y-135641666D01*
X150302380Y-136260714D01*
G04 #@! TO.C,D1*
X150302380Y-138761904D02*
X149302380Y-138761904D01*
X149302380Y-139000000D01*
X149350000Y-139142857D01*
X149445238Y-139238095D01*
X149540476Y-139285714D01*
X149730952Y-139333333D01*
X149873809Y-139333333D01*
X150064285Y-139285714D01*
X150159523Y-139238095D01*
X150254761Y-139142857D01*
X150302380Y-139000000D01*
X150302380Y-138761904D01*
X150302380Y-140285714D02*
X150302380Y-139714285D01*
X150302380Y-140000000D02*
X149302380Y-140000000D01*
X149445238Y-139904761D01*
X149540476Y-139809523D01*
X149588095Y-139714285D01*
G04 #@! TO.C,C2*
X155416666Y-135507142D02*
X155464285Y-135554761D01*
X155607142Y-135602380D01*
X155702380Y-135602380D01*
X155845238Y-135554761D01*
X155940476Y-135459523D01*
X155988095Y-135364285D01*
X156035714Y-135173809D01*
X156035714Y-135030952D01*
X155988095Y-134840476D01*
X155940476Y-134745238D01*
X155845238Y-134650000D01*
X155702380Y-134602380D01*
X155607142Y-134602380D01*
X155464285Y-134650000D01*
X155416666Y-134697619D01*
X155035714Y-134697619D02*
X154988095Y-134650000D01*
X154892857Y-134602380D01*
X154654761Y-134602380D01*
X154559523Y-134650000D01*
X154511904Y-134697619D01*
X154464285Y-134792857D01*
X154464285Y-134888095D01*
X154511904Y-135030952D01*
X155083333Y-135602380D01*
X154464285Y-135602380D01*
G04 #@! TO.C,C3*
X165507142Y-135083333D02*
X165554761Y-135035714D01*
X165602380Y-134892857D01*
X165602380Y-134797619D01*
X165554761Y-134654761D01*
X165459523Y-134559523D01*
X165364285Y-134511904D01*
X165173809Y-134464285D01*
X165030952Y-134464285D01*
X164840476Y-134511904D01*
X164745238Y-134559523D01*
X164650000Y-134654761D01*
X164602380Y-134797619D01*
X164602380Y-134892857D01*
X164650000Y-135035714D01*
X164697619Y-135083333D01*
X164602380Y-135416666D02*
X164602380Y-136035714D01*
X164983333Y-135702380D01*
X164983333Y-135845238D01*
X165030952Y-135940476D01*
X165078571Y-135988095D01*
X165173809Y-136035714D01*
X165411904Y-136035714D01*
X165507142Y-135988095D01*
X165554761Y-135940476D01*
X165602380Y-135845238D01*
X165602380Y-135559523D01*
X165554761Y-135464285D01*
X165507142Y-135416666D01*
G04 #@! TO.C,JP1*
X158902380Y-137916666D02*
X159616666Y-137916666D01*
X159759523Y-137869047D01*
X159854761Y-137773809D01*
X159902380Y-137630952D01*
X159902380Y-137535714D01*
X159902380Y-138392857D02*
X158902380Y-138392857D01*
X158902380Y-138773809D01*
X158950000Y-138869047D01*
X158997619Y-138916666D01*
X159092857Y-138964285D01*
X159235714Y-138964285D01*
X159330952Y-138916666D01*
X159378571Y-138869047D01*
X159426190Y-138773809D01*
X159426190Y-138392857D01*
X159902380Y-139916666D02*
X159902380Y-139345238D01*
X159902380Y-139630952D02*
X158902380Y-139630952D01*
X159045238Y-139535714D01*
X159140476Y-139440476D01*
X159188095Y-139345238D01*
G04 #@! TO.C,U2*
X160511904Y-137352380D02*
X160511904Y-138161904D01*
X160464285Y-138257142D01*
X160416666Y-138304761D01*
X160321428Y-138352380D01*
X160130952Y-138352380D01*
X160035714Y-138304761D01*
X159988095Y-138257142D01*
X159940476Y-138161904D01*
X159940476Y-137352380D01*
X159511904Y-137447619D02*
X159464285Y-137400000D01*
X159369047Y-137352380D01*
X159130952Y-137352380D01*
X159035714Y-137400000D01*
X158988095Y-137447619D01*
X158940476Y-137542857D01*
X158940476Y-137638095D01*
X158988095Y-137780952D01*
X159559523Y-138352380D01*
X158940476Y-138352380D01*
G04 #@! TO.C,R7*
X155191666Y-140602380D02*
X155525000Y-140126190D01*
X155763095Y-140602380D02*
X155763095Y-139602380D01*
X155382142Y-139602380D01*
X155286904Y-139650000D01*
X155239285Y-139697619D01*
X155191666Y-139792857D01*
X155191666Y-139935714D01*
X155239285Y-140030952D01*
X155286904Y-140078571D01*
X155382142Y-140126190D01*
X155763095Y-140126190D01*
X154858333Y-139602380D02*
X154191666Y-139602380D01*
X154620238Y-140602380D01*
G04 #@! TO.C,R8*
X155191666Y-138602380D02*
X155525000Y-138126190D01*
X155763095Y-138602380D02*
X155763095Y-137602380D01*
X155382142Y-137602380D01*
X155286904Y-137650000D01*
X155239285Y-137697619D01*
X155191666Y-137792857D01*
X155191666Y-137935714D01*
X155239285Y-138030952D01*
X155286904Y-138078571D01*
X155382142Y-138126190D01*
X155763095Y-138126190D01*
X154620238Y-138030952D02*
X154715476Y-137983333D01*
X154763095Y-137935714D01*
X154810714Y-137840476D01*
X154810714Y-137792857D01*
X154763095Y-137697619D01*
X154715476Y-137650000D01*
X154620238Y-137602380D01*
X154429761Y-137602380D01*
X154334523Y-137650000D01*
X154286904Y-137697619D01*
X154239285Y-137792857D01*
X154239285Y-137840476D01*
X154286904Y-137935714D01*
X154334523Y-137983333D01*
X154429761Y-138030952D01*
X154620238Y-138030952D01*
X154715476Y-138078571D01*
X154763095Y-138126190D01*
X154810714Y-138221428D01*
X154810714Y-138411904D01*
X154763095Y-138507142D01*
X154715476Y-138554761D01*
X154620238Y-138602380D01*
X154429761Y-138602380D01*
X154334523Y-138554761D01*
X154286904Y-138507142D01*
X154239285Y-138411904D01*
X154239285Y-138221428D01*
X154286904Y-138126190D01*
X154334523Y-138078571D01*
X154429761Y-138030952D01*
G04 #@! TO.C,R2*
X162302380Y-138833333D02*
X161826190Y-138500000D01*
X162302380Y-138261904D02*
X161302380Y-138261904D01*
X161302380Y-138642857D01*
X161350000Y-138738095D01*
X161397619Y-138785714D01*
X161492857Y-138833333D01*
X161635714Y-138833333D01*
X161730952Y-138785714D01*
X161778571Y-138738095D01*
X161826190Y-138642857D01*
X161826190Y-138261904D01*
X161397619Y-139214285D02*
X161350000Y-139261904D01*
X161302380Y-139357142D01*
X161302380Y-139595238D01*
X161350000Y-139690476D01*
X161397619Y-139738095D01*
X161492857Y-139785714D01*
X161588095Y-139785714D01*
X161730952Y-139738095D01*
X162302380Y-139166666D01*
X162302380Y-139785714D01*
G04 #@! TO.C,R4*
X162416666Y-144102380D02*
X162750000Y-143626190D01*
X162988095Y-144102380D02*
X162988095Y-143102380D01*
X162607142Y-143102380D01*
X162511904Y-143150000D01*
X162464285Y-143197619D01*
X162416666Y-143292857D01*
X162416666Y-143435714D01*
X162464285Y-143530952D01*
X162511904Y-143578571D01*
X162607142Y-143626190D01*
X162988095Y-143626190D01*
X161559523Y-143435714D02*
X161559523Y-144102380D01*
X161797619Y-143054761D02*
X162035714Y-143769047D01*
X161416666Y-143769047D01*
G04 #@! TD*
M02*
