M48
;DRILL file {KiCad (5.0.2)-1} date 12.10.2020 20:59:27
;FORMAT={-:-/ absolute / inch / decimal}
FMAT,2
INCH,TZ
T1C0.0157
T2C0.0394
T3C0.0866
%
G90
G05
T1
X6.1516Y-5.0492
X6.4075Y-4.813
T2
X5.9744Y-4.9984
X5.9744Y-5.0984
X6.0596Y-4.9969
X6.0596Y-5.0969
X6.1469Y-5.6988
X6.2469Y-5.6988
X6.3469Y-5.6988
X6.4469Y-5.6988
X6.5585Y-4.9969
X6.5585Y-5.0969
X6.5585Y-5.1969
X6.5585Y-5.2969
X6.5585Y-5.3969
X6.1469Y-5.8268
X6.2469Y-5.8268
X6.3469Y-5.8268
X6.4469Y-5.8268
T3
X6.0138Y-4.7441
X6.5945Y-5.8957
X6.5945Y-4.7441
X6.0138Y-5.8957
T0
M30
