G04 #@! TF.GenerationSoftware,KiCad,Pcbnew,(5.0.2)-1*
G04 #@! TF.CreationDate,2020-09-03T19:36:18+02:00*
G04 #@! TF.ProjectId,TinkerShieldPaddle,54696e6b-6572-4536-9869-656c64506164,rev?*
G04 #@! TF.SameCoordinates,Original*
G04 #@! TF.FileFunction,Copper,L1,Top*
G04 #@! TF.FilePolarity,Positive*
%FSLAX46Y46*%
G04 Gerber Fmt 4.6, Leading zero omitted, Abs format (unit mm)*
G04 Created by KiCad (PCBNEW (5.0.2)-1) date 03.09.2020 19:36:18*
%MOMM*%
%LPD*%
G01*
G04 APERTURE LIST*
G04 #@! TA.AperFunction,Conductor*
%ADD10C,0.100000*%
G04 #@! TD*
G04 #@! TA.AperFunction,SMDPad,CuDef*
%ADD11C,1.150000*%
G04 #@! TD*
G04 #@! TA.AperFunction,ComponentPad*
%ADD12R,1.700000X1.700000*%
G04 #@! TD*
G04 #@! TA.AperFunction,ComponentPad*
%ADD13O,1.700000X1.700000*%
G04 #@! TD*
G04 #@! TA.AperFunction,SMDPad,CuDef*
%ADD14R,0.250000X1.100000*%
G04 #@! TD*
G04 #@! TA.AperFunction,SMDPad,CuDef*
%ADD15R,0.800000X0.900000*%
G04 #@! TD*
G04 #@! TA.AperFunction,SMDPad,CuDef*
%ADD16R,0.900000X0.800000*%
G04 #@! TD*
G04 #@! TA.AperFunction,ComponentPad*
%ADD17C,4.400000*%
G04 #@! TD*
G04 #@! TA.AperFunction,ViaPad*
%ADD18C,0.800000*%
G04 #@! TD*
G04 #@! TA.AperFunction,Conductor*
%ADD19C,0.250000*%
G04 #@! TD*
G04 #@! TA.AperFunction,Conductor*
%ADD20C,0.254000*%
G04 #@! TD*
G04 APERTURE END LIST*
D10*
G04 #@! TO.N,Net-(Q1-Pad1)*
G04 #@! TO.C,R1*
G36*
X153724505Y-143651204D02*
X153748773Y-143654804D01*
X153772572Y-143660765D01*
X153795671Y-143669030D01*
X153817850Y-143679520D01*
X153838893Y-143692132D01*
X153858599Y-143706747D01*
X153876777Y-143723223D01*
X153893253Y-143741401D01*
X153907868Y-143761107D01*
X153920480Y-143782150D01*
X153930970Y-143804329D01*
X153939235Y-143827428D01*
X153945196Y-143851227D01*
X153948796Y-143875495D01*
X153950000Y-143899999D01*
X153950000Y-144550001D01*
X153948796Y-144574505D01*
X153945196Y-144598773D01*
X153939235Y-144622572D01*
X153930970Y-144645671D01*
X153920480Y-144667850D01*
X153907868Y-144688893D01*
X153893253Y-144708599D01*
X153876777Y-144726777D01*
X153858599Y-144743253D01*
X153838893Y-144757868D01*
X153817850Y-144770480D01*
X153795671Y-144780970D01*
X153772572Y-144789235D01*
X153748773Y-144795196D01*
X153724505Y-144798796D01*
X153700001Y-144800000D01*
X152799999Y-144800000D01*
X152775495Y-144798796D01*
X152751227Y-144795196D01*
X152727428Y-144789235D01*
X152704329Y-144780970D01*
X152682150Y-144770480D01*
X152661107Y-144757868D01*
X152641401Y-144743253D01*
X152623223Y-144726777D01*
X152606747Y-144708599D01*
X152592132Y-144688893D01*
X152579520Y-144667850D01*
X152569030Y-144645671D01*
X152560765Y-144622572D01*
X152554804Y-144598773D01*
X152551204Y-144574505D01*
X152550000Y-144550001D01*
X152550000Y-143899999D01*
X152551204Y-143875495D01*
X152554804Y-143851227D01*
X152560765Y-143827428D01*
X152569030Y-143804329D01*
X152579520Y-143782150D01*
X152592132Y-143761107D01*
X152606747Y-143741401D01*
X152623223Y-143723223D01*
X152641401Y-143706747D01*
X152661107Y-143692132D01*
X152682150Y-143679520D01*
X152704329Y-143669030D01*
X152727428Y-143660765D01*
X152751227Y-143654804D01*
X152775495Y-143651204D01*
X152799999Y-143650000D01*
X153700001Y-143650000D01*
X153724505Y-143651204D01*
X153724505Y-143651204D01*
G37*
D11*
G04 #@! TD*
G04 #@! TO.P,R1,2*
G04 #@! TO.N,Net-(Q1-Pad1)*
X153250000Y-144225000D03*
D10*
G04 #@! TO.N,Net-(C1-Pad2)*
G04 #@! TO.C,R1*
G36*
X153724505Y-145701204D02*
X153748773Y-145704804D01*
X153772572Y-145710765D01*
X153795671Y-145719030D01*
X153817850Y-145729520D01*
X153838893Y-145742132D01*
X153858599Y-145756747D01*
X153876777Y-145773223D01*
X153893253Y-145791401D01*
X153907868Y-145811107D01*
X153920480Y-145832150D01*
X153930970Y-145854329D01*
X153939235Y-145877428D01*
X153945196Y-145901227D01*
X153948796Y-145925495D01*
X153950000Y-145949999D01*
X153950000Y-146600001D01*
X153948796Y-146624505D01*
X153945196Y-146648773D01*
X153939235Y-146672572D01*
X153930970Y-146695671D01*
X153920480Y-146717850D01*
X153907868Y-146738893D01*
X153893253Y-146758599D01*
X153876777Y-146776777D01*
X153858599Y-146793253D01*
X153838893Y-146807868D01*
X153817850Y-146820480D01*
X153795671Y-146830970D01*
X153772572Y-146839235D01*
X153748773Y-146845196D01*
X153724505Y-146848796D01*
X153700001Y-146850000D01*
X152799999Y-146850000D01*
X152775495Y-146848796D01*
X152751227Y-146845196D01*
X152727428Y-146839235D01*
X152704329Y-146830970D01*
X152682150Y-146820480D01*
X152661107Y-146807868D01*
X152641401Y-146793253D01*
X152623223Y-146776777D01*
X152606747Y-146758599D01*
X152592132Y-146738893D01*
X152579520Y-146717850D01*
X152569030Y-146695671D01*
X152560765Y-146672572D01*
X152554804Y-146648773D01*
X152551204Y-146624505D01*
X152550000Y-146600001D01*
X152550000Y-145949999D01*
X152551204Y-145925495D01*
X152554804Y-145901227D01*
X152560765Y-145877428D01*
X152569030Y-145854329D01*
X152579520Y-145832150D01*
X152592132Y-145811107D01*
X152606747Y-145791401D01*
X152623223Y-145773223D01*
X152641401Y-145756747D01*
X152661107Y-145742132D01*
X152682150Y-145729520D01*
X152704329Y-145719030D01*
X152727428Y-145710765D01*
X152751227Y-145704804D01*
X152775495Y-145701204D01*
X152799999Y-145700000D01*
X153700001Y-145700000D01*
X153724505Y-145701204D01*
X153724505Y-145701204D01*
G37*
D11*
G04 #@! TD*
G04 #@! TO.P,R1,1*
G04 #@! TO.N,Net-(C1-Pad2)*
X153250000Y-146275000D03*
D10*
G04 #@! TO.N,Net-(C1-Pad2)*
G04 #@! TO.C,R3*
G36*
X165724505Y-141951204D02*
X165748773Y-141954804D01*
X165772572Y-141960765D01*
X165795671Y-141969030D01*
X165817850Y-141979520D01*
X165838893Y-141992132D01*
X165858599Y-142006747D01*
X165876777Y-142023223D01*
X165893253Y-142041401D01*
X165907868Y-142061107D01*
X165920480Y-142082150D01*
X165930970Y-142104329D01*
X165939235Y-142127428D01*
X165945196Y-142151227D01*
X165948796Y-142175495D01*
X165950000Y-142199999D01*
X165950000Y-142850001D01*
X165948796Y-142874505D01*
X165945196Y-142898773D01*
X165939235Y-142922572D01*
X165930970Y-142945671D01*
X165920480Y-142967850D01*
X165907868Y-142988893D01*
X165893253Y-143008599D01*
X165876777Y-143026777D01*
X165858599Y-143043253D01*
X165838893Y-143057868D01*
X165817850Y-143070480D01*
X165795671Y-143080970D01*
X165772572Y-143089235D01*
X165748773Y-143095196D01*
X165724505Y-143098796D01*
X165700001Y-143100000D01*
X164799999Y-143100000D01*
X164775495Y-143098796D01*
X164751227Y-143095196D01*
X164727428Y-143089235D01*
X164704329Y-143080970D01*
X164682150Y-143070480D01*
X164661107Y-143057868D01*
X164641401Y-143043253D01*
X164623223Y-143026777D01*
X164606747Y-143008599D01*
X164592132Y-142988893D01*
X164579520Y-142967850D01*
X164569030Y-142945671D01*
X164560765Y-142922572D01*
X164554804Y-142898773D01*
X164551204Y-142874505D01*
X164550000Y-142850001D01*
X164550000Y-142199999D01*
X164551204Y-142175495D01*
X164554804Y-142151227D01*
X164560765Y-142127428D01*
X164569030Y-142104329D01*
X164579520Y-142082150D01*
X164592132Y-142061107D01*
X164606747Y-142041401D01*
X164623223Y-142023223D01*
X164641401Y-142006747D01*
X164661107Y-141992132D01*
X164682150Y-141979520D01*
X164704329Y-141969030D01*
X164727428Y-141960765D01*
X164751227Y-141954804D01*
X164775495Y-141951204D01*
X164799999Y-141950000D01*
X165700001Y-141950000D01*
X165724505Y-141951204D01*
X165724505Y-141951204D01*
G37*
D11*
G04 #@! TD*
G04 #@! TO.P,R3,1*
G04 #@! TO.N,Net-(C1-Pad2)*
X165250000Y-142525000D03*
D10*
G04 #@! TO.N,Net-(Q2-Pad1)*
G04 #@! TO.C,R3*
G36*
X165724505Y-139901204D02*
X165748773Y-139904804D01*
X165772572Y-139910765D01*
X165795671Y-139919030D01*
X165817850Y-139929520D01*
X165838893Y-139942132D01*
X165858599Y-139956747D01*
X165876777Y-139973223D01*
X165893253Y-139991401D01*
X165907868Y-140011107D01*
X165920480Y-140032150D01*
X165930970Y-140054329D01*
X165939235Y-140077428D01*
X165945196Y-140101227D01*
X165948796Y-140125495D01*
X165950000Y-140149999D01*
X165950000Y-140800001D01*
X165948796Y-140824505D01*
X165945196Y-140848773D01*
X165939235Y-140872572D01*
X165930970Y-140895671D01*
X165920480Y-140917850D01*
X165907868Y-140938893D01*
X165893253Y-140958599D01*
X165876777Y-140976777D01*
X165858599Y-140993253D01*
X165838893Y-141007868D01*
X165817850Y-141020480D01*
X165795671Y-141030970D01*
X165772572Y-141039235D01*
X165748773Y-141045196D01*
X165724505Y-141048796D01*
X165700001Y-141050000D01*
X164799999Y-141050000D01*
X164775495Y-141048796D01*
X164751227Y-141045196D01*
X164727428Y-141039235D01*
X164704329Y-141030970D01*
X164682150Y-141020480D01*
X164661107Y-141007868D01*
X164641401Y-140993253D01*
X164623223Y-140976777D01*
X164606747Y-140958599D01*
X164592132Y-140938893D01*
X164579520Y-140917850D01*
X164569030Y-140895671D01*
X164560765Y-140872572D01*
X164554804Y-140848773D01*
X164551204Y-140824505D01*
X164550000Y-140800001D01*
X164550000Y-140149999D01*
X164551204Y-140125495D01*
X164554804Y-140101227D01*
X164560765Y-140077428D01*
X164569030Y-140054329D01*
X164579520Y-140032150D01*
X164592132Y-140011107D01*
X164606747Y-139991401D01*
X164623223Y-139973223D01*
X164641401Y-139956747D01*
X164661107Y-139942132D01*
X164682150Y-139929520D01*
X164704329Y-139919030D01*
X164727428Y-139910765D01*
X164751227Y-139904804D01*
X164775495Y-139901204D01*
X164799999Y-139900000D01*
X165700001Y-139900000D01*
X165724505Y-139901204D01*
X165724505Y-139901204D01*
G37*
D11*
G04 #@! TD*
G04 #@! TO.P,R3,2*
G04 #@! TO.N,Net-(Q2-Pad1)*
X165250000Y-140475000D03*
D10*
G04 #@! TO.N,GND*
G04 #@! TO.C,C1*
G36*
X158474505Y-141451204D02*
X158498773Y-141454804D01*
X158522572Y-141460765D01*
X158545671Y-141469030D01*
X158567850Y-141479520D01*
X158588893Y-141492132D01*
X158608599Y-141506747D01*
X158626777Y-141523223D01*
X158643253Y-141541401D01*
X158657868Y-141561107D01*
X158670480Y-141582150D01*
X158680970Y-141604329D01*
X158689235Y-141627428D01*
X158695196Y-141651227D01*
X158698796Y-141675495D01*
X158700000Y-141699999D01*
X158700000Y-142350001D01*
X158698796Y-142374505D01*
X158695196Y-142398773D01*
X158689235Y-142422572D01*
X158680970Y-142445671D01*
X158670480Y-142467850D01*
X158657868Y-142488893D01*
X158643253Y-142508599D01*
X158626777Y-142526777D01*
X158608599Y-142543253D01*
X158588893Y-142557868D01*
X158567850Y-142570480D01*
X158545671Y-142580970D01*
X158522572Y-142589235D01*
X158498773Y-142595196D01*
X158474505Y-142598796D01*
X158450001Y-142600000D01*
X157549999Y-142600000D01*
X157525495Y-142598796D01*
X157501227Y-142595196D01*
X157477428Y-142589235D01*
X157454329Y-142580970D01*
X157432150Y-142570480D01*
X157411107Y-142557868D01*
X157391401Y-142543253D01*
X157373223Y-142526777D01*
X157356747Y-142508599D01*
X157342132Y-142488893D01*
X157329520Y-142467850D01*
X157319030Y-142445671D01*
X157310765Y-142422572D01*
X157304804Y-142398773D01*
X157301204Y-142374505D01*
X157300000Y-142350001D01*
X157300000Y-141699999D01*
X157301204Y-141675495D01*
X157304804Y-141651227D01*
X157310765Y-141627428D01*
X157319030Y-141604329D01*
X157329520Y-141582150D01*
X157342132Y-141561107D01*
X157356747Y-141541401D01*
X157373223Y-141523223D01*
X157391401Y-141506747D01*
X157411107Y-141492132D01*
X157432150Y-141479520D01*
X157454329Y-141469030D01*
X157477428Y-141460765D01*
X157501227Y-141454804D01*
X157525495Y-141451204D01*
X157549999Y-141450000D01*
X158450001Y-141450000D01*
X158474505Y-141451204D01*
X158474505Y-141451204D01*
G37*
D11*
G04 #@! TD*
G04 #@! TO.P,C1,1*
G04 #@! TO.N,GND*
X158000000Y-142025000D03*
D10*
G04 #@! TO.N,Net-(C1-Pad2)*
G04 #@! TO.C,C1*
G36*
X158474505Y-139401204D02*
X158498773Y-139404804D01*
X158522572Y-139410765D01*
X158545671Y-139419030D01*
X158567850Y-139429520D01*
X158588893Y-139442132D01*
X158608599Y-139456747D01*
X158626777Y-139473223D01*
X158643253Y-139491401D01*
X158657868Y-139511107D01*
X158670480Y-139532150D01*
X158680970Y-139554329D01*
X158689235Y-139577428D01*
X158695196Y-139601227D01*
X158698796Y-139625495D01*
X158700000Y-139649999D01*
X158700000Y-140300001D01*
X158698796Y-140324505D01*
X158695196Y-140348773D01*
X158689235Y-140372572D01*
X158680970Y-140395671D01*
X158670480Y-140417850D01*
X158657868Y-140438893D01*
X158643253Y-140458599D01*
X158626777Y-140476777D01*
X158608599Y-140493253D01*
X158588893Y-140507868D01*
X158567850Y-140520480D01*
X158545671Y-140530970D01*
X158522572Y-140539235D01*
X158498773Y-140545196D01*
X158474505Y-140548796D01*
X158450001Y-140550000D01*
X157549999Y-140550000D01*
X157525495Y-140548796D01*
X157501227Y-140545196D01*
X157477428Y-140539235D01*
X157454329Y-140530970D01*
X157432150Y-140520480D01*
X157411107Y-140507868D01*
X157391401Y-140493253D01*
X157373223Y-140476777D01*
X157356747Y-140458599D01*
X157342132Y-140438893D01*
X157329520Y-140417850D01*
X157319030Y-140395671D01*
X157310765Y-140372572D01*
X157304804Y-140348773D01*
X157301204Y-140324505D01*
X157300000Y-140300001D01*
X157300000Y-139649999D01*
X157301204Y-139625495D01*
X157304804Y-139601227D01*
X157310765Y-139577428D01*
X157319030Y-139554329D01*
X157329520Y-139532150D01*
X157342132Y-139511107D01*
X157356747Y-139491401D01*
X157373223Y-139473223D01*
X157391401Y-139456747D01*
X157411107Y-139442132D01*
X157432150Y-139429520D01*
X157454329Y-139419030D01*
X157477428Y-139410765D01*
X157501227Y-139404804D01*
X157525495Y-139401204D01*
X157549999Y-139400000D01*
X158450001Y-139400000D01*
X158474505Y-139401204D01*
X158474505Y-139401204D01*
G37*
D11*
G04 #@! TD*
G04 #@! TO.P,C1,2*
G04 #@! TO.N,Net-(C1-Pad2)*
X158000000Y-139975000D03*
D12*
G04 #@! TO.P,J6,1*
G04 #@! TO.N,Net-(C1-Pad2)*
X163750000Y-148000000D03*
D13*
G04 #@! TO.P,J6,2*
X161210000Y-148000000D03*
G04 #@! TO.P,J6,3*
G04 #@! TO.N,GND*
X158670000Y-148000000D03*
G04 #@! TO.P,J6,4*
X156130000Y-148000000D03*
G04 #@! TD*
D12*
G04 #@! TO.P,J2,1*
G04 #@! TO.N,Net-(C3-Pad2)*
X166585000Y-126920000D03*
D13*
G04 #@! TO.P,J2,2*
G04 #@! TO.N,Net-(J2-Pad2)*
X166585000Y-129460000D03*
G04 #@! TO.P,J2,3*
G04 #@! TO.N,Net-(J2-Pad3)*
X166585000Y-132000000D03*
G04 #@! TO.P,J2,4*
G04 #@! TO.N,Net-(J2-Pad4)*
X166585000Y-134540000D03*
G04 #@! TO.P,J2,5*
G04 #@! TO.N,Net-(C1-Pad2)*
X166585000Y-137080000D03*
G04 #@! TD*
D10*
G04 #@! TO.N,GND*
G04 #@! TO.C,C4*
G36*
X156624505Y-133051204D02*
X156648773Y-133054804D01*
X156672572Y-133060765D01*
X156695671Y-133069030D01*
X156717850Y-133079520D01*
X156738893Y-133092132D01*
X156758599Y-133106747D01*
X156776777Y-133123223D01*
X156793253Y-133141401D01*
X156807868Y-133161107D01*
X156820480Y-133182150D01*
X156830970Y-133204329D01*
X156839235Y-133227428D01*
X156845196Y-133251227D01*
X156848796Y-133275495D01*
X156850000Y-133299999D01*
X156850000Y-134200001D01*
X156848796Y-134224505D01*
X156845196Y-134248773D01*
X156839235Y-134272572D01*
X156830970Y-134295671D01*
X156820480Y-134317850D01*
X156807868Y-134338893D01*
X156793253Y-134358599D01*
X156776777Y-134376777D01*
X156758599Y-134393253D01*
X156738893Y-134407868D01*
X156717850Y-134420480D01*
X156695671Y-134430970D01*
X156672572Y-134439235D01*
X156648773Y-134445196D01*
X156624505Y-134448796D01*
X156600001Y-134450000D01*
X155949999Y-134450000D01*
X155925495Y-134448796D01*
X155901227Y-134445196D01*
X155877428Y-134439235D01*
X155854329Y-134430970D01*
X155832150Y-134420480D01*
X155811107Y-134407868D01*
X155791401Y-134393253D01*
X155773223Y-134376777D01*
X155756747Y-134358599D01*
X155742132Y-134338893D01*
X155729520Y-134317850D01*
X155719030Y-134295671D01*
X155710765Y-134272572D01*
X155704804Y-134248773D01*
X155701204Y-134224505D01*
X155700000Y-134200001D01*
X155700000Y-133299999D01*
X155701204Y-133275495D01*
X155704804Y-133251227D01*
X155710765Y-133227428D01*
X155719030Y-133204329D01*
X155729520Y-133182150D01*
X155742132Y-133161107D01*
X155756747Y-133141401D01*
X155773223Y-133123223D01*
X155791401Y-133106747D01*
X155811107Y-133092132D01*
X155832150Y-133079520D01*
X155854329Y-133069030D01*
X155877428Y-133060765D01*
X155901227Y-133054804D01*
X155925495Y-133051204D01*
X155949999Y-133050000D01*
X156600001Y-133050000D01*
X156624505Y-133051204D01*
X156624505Y-133051204D01*
G37*
D11*
G04 #@! TD*
G04 #@! TO.P,C4,1*
G04 #@! TO.N,GND*
X156275000Y-133750000D03*
D10*
G04 #@! TO.N,Net-(C1-Pad2)*
G04 #@! TO.C,C4*
G36*
X154574505Y-133051204D02*
X154598773Y-133054804D01*
X154622572Y-133060765D01*
X154645671Y-133069030D01*
X154667850Y-133079520D01*
X154688893Y-133092132D01*
X154708599Y-133106747D01*
X154726777Y-133123223D01*
X154743253Y-133141401D01*
X154757868Y-133161107D01*
X154770480Y-133182150D01*
X154780970Y-133204329D01*
X154789235Y-133227428D01*
X154795196Y-133251227D01*
X154798796Y-133275495D01*
X154800000Y-133299999D01*
X154800000Y-134200001D01*
X154798796Y-134224505D01*
X154795196Y-134248773D01*
X154789235Y-134272572D01*
X154780970Y-134295671D01*
X154770480Y-134317850D01*
X154757868Y-134338893D01*
X154743253Y-134358599D01*
X154726777Y-134376777D01*
X154708599Y-134393253D01*
X154688893Y-134407868D01*
X154667850Y-134420480D01*
X154645671Y-134430970D01*
X154622572Y-134439235D01*
X154598773Y-134445196D01*
X154574505Y-134448796D01*
X154550001Y-134450000D01*
X153899999Y-134450000D01*
X153875495Y-134448796D01*
X153851227Y-134445196D01*
X153827428Y-134439235D01*
X153804329Y-134430970D01*
X153782150Y-134420480D01*
X153761107Y-134407868D01*
X153741401Y-134393253D01*
X153723223Y-134376777D01*
X153706747Y-134358599D01*
X153692132Y-134338893D01*
X153679520Y-134317850D01*
X153669030Y-134295671D01*
X153660765Y-134272572D01*
X153654804Y-134248773D01*
X153651204Y-134224505D01*
X153650000Y-134200001D01*
X153650000Y-133299999D01*
X153651204Y-133275495D01*
X153654804Y-133251227D01*
X153660765Y-133227428D01*
X153669030Y-133204329D01*
X153679520Y-133182150D01*
X153692132Y-133161107D01*
X153706747Y-133141401D01*
X153723223Y-133123223D01*
X153741401Y-133106747D01*
X153761107Y-133092132D01*
X153782150Y-133079520D01*
X153804329Y-133069030D01*
X153827428Y-133060765D01*
X153851227Y-133054804D01*
X153875495Y-133051204D01*
X153899999Y-133050000D01*
X154550001Y-133050000D01*
X154574505Y-133051204D01*
X154574505Y-133051204D01*
G37*
D11*
G04 #@! TD*
G04 #@! TO.P,C4,2*
G04 #@! TO.N,Net-(C1-Pad2)*
X154225000Y-133750000D03*
D12*
G04 #@! TO.P,J5,1*
G04 #@! TO.N,Net-(J5-Pad1)*
X163750000Y-144750000D03*
D13*
G04 #@! TO.P,J5,2*
G04 #@! TO.N,Net-(J5-Pad2)*
X161210000Y-144750000D03*
G04 #@! TO.P,J5,3*
G04 #@! TO.N,Net-(J5-Pad3)*
X158670000Y-144750000D03*
G04 #@! TO.P,J5,4*
G04 #@! TO.N,Net-(J5-Pad4)*
X156130000Y-144750000D03*
G04 #@! TD*
D12*
G04 #@! TO.P,J1,1*
G04 #@! TO.N,GND*
X151750000Y-129500000D03*
D13*
G04 #@! TO.P,J1,2*
G04 #@! TO.N,Net-(C2-Pad2)*
X151750000Y-126960000D03*
G04 #@! TD*
D12*
G04 #@! TO.P,J4,1*
G04 #@! TO.N,GND*
X153915000Y-129460000D03*
D13*
G04 #@! TO.P,J4,2*
G04 #@! TO.N,Net-(C2-Pad2)*
X153915000Y-126920000D03*
G04 #@! TD*
D14*
G04 #@! TO.P,U1,10*
G04 #@! TO.N,Net-(J2-Pad4)*
X154500000Y-137850000D03*
G04 #@! TO.P,U1,9*
G04 #@! TO.N,Net-(J2-Pad2)*
X155000000Y-137850000D03*
G04 #@! TO.P,U1,8*
G04 #@! TO.N,Net-(C1-Pad2)*
X155500000Y-137850000D03*
G04 #@! TO.P,U1,7*
G04 #@! TO.N,Net-(U1-Pad7)*
X156000000Y-137850000D03*
G04 #@! TO.P,U1,6*
G04 #@! TO.N,Net-(U1-Pad6)*
X156500000Y-137850000D03*
G04 #@! TO.P,U1,5*
G04 #@! TO.N,Net-(J5-Pad3)*
X156500000Y-142150000D03*
G04 #@! TO.P,U1,4*
G04 #@! TO.N,Net-(J5-Pad4)*
X156000000Y-142150000D03*
G04 #@! TO.P,U1,3*
G04 #@! TO.N,GND*
X155500000Y-142150000D03*
G04 #@! TO.P,U1,2*
G04 #@! TO.N,Net-(Q1-Pad1)*
X155000000Y-142150000D03*
G04 #@! TO.P,U1,1*
G04 #@! TO.N,GND*
X154500000Y-142150000D03*
G04 #@! TD*
G04 #@! TO.P,U3,1*
G04 #@! TO.N,Net-(C1-Pad2)*
X161500000Y-142150000D03*
G04 #@! TO.P,U3,2*
G04 #@! TO.N,Net-(Q2-Pad1)*
X162000000Y-142150000D03*
G04 #@! TO.P,U3,3*
G04 #@! TO.N,GND*
X162500000Y-142150000D03*
G04 #@! TO.P,U3,4*
G04 #@! TO.N,Net-(J5-Pad2)*
X163000000Y-142150000D03*
G04 #@! TO.P,U3,5*
G04 #@! TO.N,Net-(J5-Pad1)*
X163500000Y-142150000D03*
G04 #@! TO.P,U3,6*
G04 #@! TO.N,Net-(U3-Pad6)*
X163500000Y-137850000D03*
G04 #@! TO.P,U3,7*
G04 #@! TO.N,Net-(U3-Pad7)*
X163000000Y-137850000D03*
G04 #@! TO.P,U3,8*
G04 #@! TO.N,Net-(C1-Pad2)*
X162500000Y-137850000D03*
G04 #@! TO.P,U3,9*
G04 #@! TO.N,Net-(J2-Pad2)*
X162000000Y-137850000D03*
G04 #@! TO.P,U3,10*
G04 #@! TO.N,Net-(J2-Pad4)*
X161500000Y-137850000D03*
G04 #@! TD*
D15*
G04 #@! TO.P,Q1,3*
G04 #@! TO.N,Net-(J3-Pad2)*
X162750000Y-123500000D03*
G04 #@! TO.P,Q1,2*
G04 #@! TO.N,GND*
X163700000Y-125500000D03*
G04 #@! TO.P,Q1,1*
G04 #@! TO.N,Net-(Q1-Pad1)*
X161800000Y-125500000D03*
G04 #@! TD*
D16*
G04 #@! TO.P,Q2,1*
G04 #@! TO.N,Net-(Q2-Pad1)*
X160750000Y-130200000D03*
G04 #@! TO.P,Q2,2*
G04 #@! TO.N,GND*
X160750000Y-128300000D03*
G04 #@! TO.P,Q2,3*
G04 #@! TO.N,Net-(J3-Pad1)*
X158750000Y-129250000D03*
G04 #@! TD*
D10*
G04 #@! TO.N,Net-(C1-Pad2)*
G04 #@! TO.C,R5*
G36*
X160224505Y-139451204D02*
X160248773Y-139454804D01*
X160272572Y-139460765D01*
X160295671Y-139469030D01*
X160317850Y-139479520D01*
X160338893Y-139492132D01*
X160358599Y-139506747D01*
X160376777Y-139523223D01*
X160393253Y-139541401D01*
X160407868Y-139561107D01*
X160420480Y-139582150D01*
X160430970Y-139604329D01*
X160439235Y-139627428D01*
X160445196Y-139651227D01*
X160448796Y-139675495D01*
X160450000Y-139699999D01*
X160450000Y-140350001D01*
X160448796Y-140374505D01*
X160445196Y-140398773D01*
X160439235Y-140422572D01*
X160430970Y-140445671D01*
X160420480Y-140467850D01*
X160407868Y-140488893D01*
X160393253Y-140508599D01*
X160376777Y-140526777D01*
X160358599Y-140543253D01*
X160338893Y-140557868D01*
X160317850Y-140570480D01*
X160295671Y-140580970D01*
X160272572Y-140589235D01*
X160248773Y-140595196D01*
X160224505Y-140598796D01*
X160200001Y-140600000D01*
X159299999Y-140600000D01*
X159275495Y-140598796D01*
X159251227Y-140595196D01*
X159227428Y-140589235D01*
X159204329Y-140580970D01*
X159182150Y-140570480D01*
X159161107Y-140557868D01*
X159141401Y-140543253D01*
X159123223Y-140526777D01*
X159106747Y-140508599D01*
X159092132Y-140488893D01*
X159079520Y-140467850D01*
X159069030Y-140445671D01*
X159060765Y-140422572D01*
X159054804Y-140398773D01*
X159051204Y-140374505D01*
X159050000Y-140350001D01*
X159050000Y-139699999D01*
X159051204Y-139675495D01*
X159054804Y-139651227D01*
X159060765Y-139627428D01*
X159069030Y-139604329D01*
X159079520Y-139582150D01*
X159092132Y-139561107D01*
X159106747Y-139541401D01*
X159123223Y-139523223D01*
X159141401Y-139506747D01*
X159161107Y-139492132D01*
X159182150Y-139479520D01*
X159204329Y-139469030D01*
X159227428Y-139460765D01*
X159251227Y-139454804D01*
X159275495Y-139451204D01*
X159299999Y-139450000D01*
X160200001Y-139450000D01*
X160224505Y-139451204D01*
X160224505Y-139451204D01*
G37*
D11*
G04 #@! TD*
G04 #@! TO.P,R5,2*
G04 #@! TO.N,Net-(C1-Pad2)*
X159750000Y-140025000D03*
D10*
G04 #@! TO.N,Net-(J2-Pad2)*
G04 #@! TO.C,R5*
G36*
X160224505Y-137401204D02*
X160248773Y-137404804D01*
X160272572Y-137410765D01*
X160295671Y-137419030D01*
X160317850Y-137429520D01*
X160338893Y-137442132D01*
X160358599Y-137456747D01*
X160376777Y-137473223D01*
X160393253Y-137491401D01*
X160407868Y-137511107D01*
X160420480Y-137532150D01*
X160430970Y-137554329D01*
X160439235Y-137577428D01*
X160445196Y-137601227D01*
X160448796Y-137625495D01*
X160450000Y-137649999D01*
X160450000Y-138300001D01*
X160448796Y-138324505D01*
X160445196Y-138348773D01*
X160439235Y-138372572D01*
X160430970Y-138395671D01*
X160420480Y-138417850D01*
X160407868Y-138438893D01*
X160393253Y-138458599D01*
X160376777Y-138476777D01*
X160358599Y-138493253D01*
X160338893Y-138507868D01*
X160317850Y-138520480D01*
X160295671Y-138530970D01*
X160272572Y-138539235D01*
X160248773Y-138545196D01*
X160224505Y-138548796D01*
X160200001Y-138550000D01*
X159299999Y-138550000D01*
X159275495Y-138548796D01*
X159251227Y-138545196D01*
X159227428Y-138539235D01*
X159204329Y-138530970D01*
X159182150Y-138520480D01*
X159161107Y-138507868D01*
X159141401Y-138493253D01*
X159123223Y-138476777D01*
X159106747Y-138458599D01*
X159092132Y-138438893D01*
X159079520Y-138417850D01*
X159069030Y-138395671D01*
X159060765Y-138372572D01*
X159054804Y-138348773D01*
X159051204Y-138324505D01*
X159050000Y-138300001D01*
X159050000Y-137649999D01*
X159051204Y-137625495D01*
X159054804Y-137601227D01*
X159060765Y-137577428D01*
X159069030Y-137554329D01*
X159079520Y-137532150D01*
X159092132Y-137511107D01*
X159106747Y-137491401D01*
X159123223Y-137473223D01*
X159141401Y-137456747D01*
X159161107Y-137442132D01*
X159182150Y-137429520D01*
X159204329Y-137419030D01*
X159227428Y-137410765D01*
X159251227Y-137404804D01*
X159275495Y-137401204D01*
X159299999Y-137400000D01*
X160200001Y-137400000D01*
X160224505Y-137401204D01*
X160224505Y-137401204D01*
G37*
D11*
G04 #@! TD*
G04 #@! TO.P,R5,1*
G04 #@! TO.N,Net-(J2-Pad2)*
X159750000Y-137975000D03*
D10*
G04 #@! TO.N,Net-(J2-Pad4)*
G04 #@! TO.C,R6*
G36*
X156624505Y-134801204D02*
X156648773Y-134804804D01*
X156672572Y-134810765D01*
X156695671Y-134819030D01*
X156717850Y-134829520D01*
X156738893Y-134842132D01*
X156758599Y-134856747D01*
X156776777Y-134873223D01*
X156793253Y-134891401D01*
X156807868Y-134911107D01*
X156820480Y-134932150D01*
X156830970Y-134954329D01*
X156839235Y-134977428D01*
X156845196Y-135001227D01*
X156848796Y-135025495D01*
X156850000Y-135049999D01*
X156850000Y-135950001D01*
X156848796Y-135974505D01*
X156845196Y-135998773D01*
X156839235Y-136022572D01*
X156830970Y-136045671D01*
X156820480Y-136067850D01*
X156807868Y-136088893D01*
X156793253Y-136108599D01*
X156776777Y-136126777D01*
X156758599Y-136143253D01*
X156738893Y-136157868D01*
X156717850Y-136170480D01*
X156695671Y-136180970D01*
X156672572Y-136189235D01*
X156648773Y-136195196D01*
X156624505Y-136198796D01*
X156600001Y-136200000D01*
X155949999Y-136200000D01*
X155925495Y-136198796D01*
X155901227Y-136195196D01*
X155877428Y-136189235D01*
X155854329Y-136180970D01*
X155832150Y-136170480D01*
X155811107Y-136157868D01*
X155791401Y-136143253D01*
X155773223Y-136126777D01*
X155756747Y-136108599D01*
X155742132Y-136088893D01*
X155729520Y-136067850D01*
X155719030Y-136045671D01*
X155710765Y-136022572D01*
X155704804Y-135998773D01*
X155701204Y-135974505D01*
X155700000Y-135950001D01*
X155700000Y-135049999D01*
X155701204Y-135025495D01*
X155704804Y-135001227D01*
X155710765Y-134977428D01*
X155719030Y-134954329D01*
X155729520Y-134932150D01*
X155742132Y-134911107D01*
X155756747Y-134891401D01*
X155773223Y-134873223D01*
X155791401Y-134856747D01*
X155811107Y-134842132D01*
X155832150Y-134829520D01*
X155854329Y-134819030D01*
X155877428Y-134810765D01*
X155901227Y-134804804D01*
X155925495Y-134801204D01*
X155949999Y-134800000D01*
X156600001Y-134800000D01*
X156624505Y-134801204D01*
X156624505Y-134801204D01*
G37*
D11*
G04 #@! TD*
G04 #@! TO.P,R6,1*
G04 #@! TO.N,Net-(J2-Pad4)*
X156275000Y-135500000D03*
D10*
G04 #@! TO.N,Net-(C1-Pad2)*
G04 #@! TO.C,R6*
G36*
X154574505Y-134801204D02*
X154598773Y-134804804D01*
X154622572Y-134810765D01*
X154645671Y-134819030D01*
X154667850Y-134829520D01*
X154688893Y-134842132D01*
X154708599Y-134856747D01*
X154726777Y-134873223D01*
X154743253Y-134891401D01*
X154757868Y-134911107D01*
X154770480Y-134932150D01*
X154780970Y-134954329D01*
X154789235Y-134977428D01*
X154795196Y-135001227D01*
X154798796Y-135025495D01*
X154800000Y-135049999D01*
X154800000Y-135950001D01*
X154798796Y-135974505D01*
X154795196Y-135998773D01*
X154789235Y-136022572D01*
X154780970Y-136045671D01*
X154770480Y-136067850D01*
X154757868Y-136088893D01*
X154743253Y-136108599D01*
X154726777Y-136126777D01*
X154708599Y-136143253D01*
X154688893Y-136157868D01*
X154667850Y-136170480D01*
X154645671Y-136180970D01*
X154622572Y-136189235D01*
X154598773Y-136195196D01*
X154574505Y-136198796D01*
X154550001Y-136200000D01*
X153899999Y-136200000D01*
X153875495Y-136198796D01*
X153851227Y-136195196D01*
X153827428Y-136189235D01*
X153804329Y-136180970D01*
X153782150Y-136170480D01*
X153761107Y-136157868D01*
X153741401Y-136143253D01*
X153723223Y-136126777D01*
X153706747Y-136108599D01*
X153692132Y-136088893D01*
X153679520Y-136067850D01*
X153669030Y-136045671D01*
X153660765Y-136022572D01*
X153654804Y-135998773D01*
X153651204Y-135974505D01*
X153650000Y-135950001D01*
X153650000Y-135049999D01*
X153651204Y-135025495D01*
X153654804Y-135001227D01*
X153660765Y-134977428D01*
X153669030Y-134954329D01*
X153679520Y-134932150D01*
X153692132Y-134911107D01*
X153706747Y-134891401D01*
X153723223Y-134873223D01*
X153741401Y-134856747D01*
X153761107Y-134842132D01*
X153782150Y-134829520D01*
X153804329Y-134819030D01*
X153827428Y-134810765D01*
X153851227Y-134804804D01*
X153875495Y-134801204D01*
X153899999Y-134800000D01*
X154550001Y-134800000D01*
X154574505Y-134801204D01*
X154574505Y-134801204D01*
G37*
D11*
G04 #@! TD*
G04 #@! TO.P,R6,2*
G04 #@! TO.N,Net-(C1-Pad2)*
X154225000Y-135500000D03*
D17*
G04 #@! TO.P,REF\002A\002A,1*
G04 #@! TO.N,GND*
X152750000Y-120500000D03*
G04 #@! TD*
G04 #@! TO.P,REF\002A\002A,1*
G04 #@! TO.N,GND*
X167500000Y-120500000D03*
G04 #@! TD*
G04 #@! TO.P,REF\002A\002A,1*
G04 #@! TO.N,GND*
X167500000Y-149750000D03*
G04 #@! TD*
G04 #@! TO.P,REF\002A\002A,1*
G04 #@! TO.N,GND*
X152750000Y-149750000D03*
G04 #@! TD*
D18*
G04 #@! TO.N,Net-(J3-Pad1)*
X156250000Y-128250000D03*
G04 #@! TO.N,Net-(J3-Pad2)*
X162750000Y-122250000D03*
G04 #@! TD*
D19*
G04 #@! TO.N,GND*
X155500000Y-141350000D02*
X155750000Y-141100000D01*
X155500000Y-142150000D02*
X155500000Y-141350000D01*
X157376628Y-141401628D02*
X158000000Y-142025000D01*
X157202028Y-141401628D02*
X157376628Y-141401628D01*
X156900400Y-141100000D02*
X157202028Y-141401628D01*
X155750000Y-141100000D02*
X156900400Y-141100000D01*
X151500000Y-143250000D02*
X152600000Y-142150000D01*
X151500000Y-144063190D02*
X151500000Y-143250000D01*
X155500000Y-142150000D02*
X155500000Y-143500000D01*
X155250000Y-143750000D02*
X155250000Y-143813190D01*
X155250000Y-143813190D02*
X153813190Y-145250000D01*
X153813190Y-145250000D02*
X152686810Y-145250000D01*
X152600000Y-142150000D02*
X154500000Y-142150000D01*
X155500000Y-143500000D02*
X155250000Y-143750000D01*
X152686810Y-145250000D02*
X151500000Y-144063190D01*
G04 #@! TO.N,Net-(J5-Pad3)*
X158500000Y-144580000D02*
X158670000Y-144750000D01*
X157820001Y-143900001D02*
X158670000Y-144750000D01*
X156500000Y-142580000D02*
X157820001Y-143900001D01*
X156500000Y-142150000D02*
X156500000Y-142580000D01*
G04 #@! TO.N,Net-(J5-Pad2)*
X163000000Y-142960000D02*
X161210000Y-144750000D01*
X163000000Y-142150000D02*
X163000000Y-142960000D01*
G04 #@! TO.N,Net-(J5-Pad4)*
X156200000Y-144750000D02*
X156130000Y-144750000D01*
X156000000Y-144620000D02*
X156130000Y-144750000D01*
X156000000Y-142150000D02*
X156000000Y-144620000D01*
G04 #@! TO.N,Net-(J3-Pad1)*
X157250000Y-129250000D02*
X156250000Y-128250000D01*
X158750000Y-129250000D02*
X157250000Y-129250000D01*
G04 #@! TO.N,Net-(J3-Pad2)*
X162750000Y-123500000D02*
X162750000Y-122500000D01*
X162750000Y-122500000D02*
X162750000Y-122250000D01*
G04 #@! TO.N,Net-(C1-Pad2)*
X161210000Y-148000000D02*
X163750000Y-148000000D01*
X166585000Y-138282081D02*
X166585000Y-137080000D01*
X164850000Y-148000000D02*
X166585000Y-146265000D01*
X163750000Y-148000000D02*
X164850000Y-148000000D01*
X162500000Y-138786410D02*
X161061410Y-140225000D01*
X162500000Y-137850000D02*
X162500000Y-138786410D01*
X161000000Y-140850000D02*
X161000000Y-140225000D01*
X161500000Y-141350000D02*
X161000000Y-140850000D01*
X161500000Y-142150000D02*
X161500000Y-141350000D01*
X161061410Y-140225000D02*
X161000000Y-140225000D01*
X166548590Y-138786410D02*
X166585000Y-138750000D01*
X162500000Y-138786410D02*
X166548590Y-138786410D01*
X166585000Y-138750000D02*
X166585000Y-138282081D01*
X155500000Y-138650000D02*
X155500000Y-137850000D01*
X155500000Y-138710000D02*
X155500000Y-138650000D01*
X156141628Y-139351628D02*
X155500000Y-138710000D01*
X157376628Y-139351628D02*
X156141628Y-139351628D01*
X158000000Y-139975000D02*
X157376628Y-139351628D01*
X153601628Y-136123372D02*
X154225000Y-135500000D01*
X153601628Y-138211630D02*
X153601628Y-136123372D01*
X154389998Y-139000000D02*
X153601628Y-138211630D01*
X155210000Y-139000000D02*
X154389998Y-139000000D01*
X155500000Y-138710000D02*
X155210000Y-139000000D01*
X154225000Y-133750000D02*
X154225000Y-135500000D01*
X160750000Y-139975000D02*
X161000000Y-140225000D01*
X158000000Y-139975000D02*
X160750000Y-139975000D01*
X166560000Y-142525000D02*
X166585000Y-142500000D01*
X165250000Y-142525000D02*
X166560000Y-142525000D01*
X166585000Y-146265000D02*
X166585000Y-142500000D01*
X166585000Y-142500000D02*
X166585000Y-138750000D01*
X159485000Y-146275000D02*
X153250000Y-146275000D01*
X161210000Y-148000000D02*
X159485000Y-146275000D01*
G04 #@! TO.N,Net-(Q1-Pad1)*
X155000000Y-142950000D02*
X155000000Y-142150000D01*
X154348372Y-143601628D02*
X155000000Y-142950000D01*
X153873372Y-143601628D02*
X154348372Y-143601628D01*
X153250000Y-144225000D02*
X153873372Y-143601628D01*
X161800000Y-125550000D02*
X161800000Y-125500000D01*
X159750000Y-127600000D02*
X161800000Y-125550000D01*
X155000000Y-142150000D02*
X155000000Y-141350000D01*
X155000000Y-141350000D02*
X152701608Y-139051608D01*
X152701608Y-139051608D02*
X152701609Y-133048791D01*
X152701609Y-133048791D02*
X154750400Y-131000000D01*
X154750400Y-131000000D02*
X159750000Y-131000000D01*
X159750000Y-131000000D02*
X159750000Y-127600000D01*
G04 #@! TO.N,Net-(Q2-Pad1)*
X164450000Y-140475000D02*
X165250000Y-140475000D01*
X162875000Y-140475000D02*
X164450000Y-140475000D01*
X162000000Y-141350000D02*
X162875000Y-140475000D01*
X162000000Y-142150000D02*
X162000000Y-141350000D01*
X160100000Y-131500000D02*
X160750000Y-130850000D01*
X160750000Y-130850000D02*
X160750000Y-130200000D01*
X154886810Y-131500000D02*
X160100000Y-131500000D01*
X153151618Y-133235192D02*
X154886810Y-131500000D01*
X156551637Y-139801637D02*
X154551637Y-139801637D01*
X162000000Y-142150000D02*
X162000000Y-142950000D01*
X162000000Y-142950000D02*
X161924999Y-143025001D01*
X161924999Y-143025001D02*
X160588191Y-143025001D01*
X160588191Y-143025001D02*
X158438200Y-140875010D01*
X153151618Y-138401618D02*
X153151618Y-133235192D01*
X156551637Y-140114827D02*
X156551637Y-139801637D01*
X158438200Y-140875010D02*
X157311820Y-140875010D01*
X154551637Y-139801637D02*
X153151618Y-138401618D01*
X157311820Y-140875010D02*
X156551637Y-140114827D01*
G04 #@! TO.N,Net-(J5-Pad1)*
X163250000Y-144250000D02*
X163750000Y-144750000D01*
X163500000Y-144500000D02*
X163750000Y-144750000D01*
X163500000Y-142150000D02*
X163500000Y-144500000D01*
G04 #@! TO.N,Net-(J2-Pad4)*
X154500000Y-137050000D02*
X154500000Y-137850000D01*
X154500000Y-136913590D02*
X154500000Y-137050000D01*
X154888600Y-136524990D02*
X154500000Y-136913590D01*
X161500000Y-137850000D02*
X161500000Y-137050000D01*
X156275000Y-136499990D02*
X156250000Y-136524990D01*
X156275000Y-135500000D02*
X156275000Y-136499990D01*
X160974990Y-136524990D02*
X156250000Y-136524990D01*
X156250000Y-136524990D02*
X154888600Y-136524990D01*
X161450000Y-136963590D02*
X161450000Y-137000000D01*
X163873590Y-134540000D02*
X161450000Y-136963590D01*
X166585000Y-134540000D02*
X163873590Y-134540000D01*
X161500000Y-137050000D02*
X161450000Y-137000000D01*
X161450000Y-137000000D02*
X160974990Y-136524990D01*
G04 #@! TO.N,Net-(J2-Pad2)*
X162000000Y-138650000D02*
X161650000Y-139000000D01*
X162000000Y-137850000D02*
X162000000Y-138650000D01*
X155025000Y-138007802D02*
X155025000Y-137850000D01*
X160775000Y-139000000D02*
X159750000Y-137975000D01*
X161650000Y-139000000D02*
X160775000Y-139000000D01*
X155000000Y-137050000D02*
X155000000Y-137850000D01*
X155075001Y-136974999D02*
X155000000Y-137050000D01*
X159424999Y-136974999D02*
X155075001Y-136974999D01*
X159750000Y-137300000D02*
X159424999Y-136974999D01*
X159750000Y-137975000D02*
X159750000Y-137300000D01*
X167434999Y-130309999D02*
X166585000Y-129460000D01*
X167760001Y-130635001D02*
X167434999Y-130309999D01*
X167760001Y-135104001D02*
X167760001Y-130635001D01*
X167149001Y-135715001D02*
X167760001Y-135104001D01*
X163334999Y-135715001D02*
X167149001Y-135715001D01*
X162000000Y-137050000D02*
X163334999Y-135715001D01*
X162000000Y-137850000D02*
X162000000Y-137050000D01*
G04 #@! TD*
D20*
G04 #@! TO.N,GND*
G36*
X169544001Y-149705091D02*
X169544000Y-151794000D01*
X150706000Y-151794000D01*
X150706000Y-143899999D01*
X152161536Y-143899999D01*
X152161536Y-144550001D01*
X152210136Y-144794330D01*
X152348537Y-145001463D01*
X152555670Y-145139864D01*
X152799999Y-145188464D01*
X153700001Y-145188464D01*
X153944330Y-145139864D01*
X154151463Y-145001463D01*
X154289864Y-144794330D01*
X154338464Y-144550001D01*
X154338464Y-144115570D01*
X154348372Y-144117541D01*
X154398206Y-144107628D01*
X154398207Y-144107628D01*
X154545803Y-144078269D01*
X154713178Y-143966434D01*
X154741410Y-143924181D01*
X155322556Y-143343036D01*
X155364806Y-143314806D01*
X155476641Y-143147431D01*
X155494000Y-143060161D01*
X155494001Y-143694451D01*
X155242499Y-143862499D01*
X154970424Y-144269688D01*
X154874884Y-144750000D01*
X154970424Y-145230312D01*
X155242499Y-145637501D01*
X155439301Y-145769000D01*
X154302461Y-145769000D01*
X154289864Y-145705670D01*
X154151463Y-145498537D01*
X153944330Y-145360136D01*
X153700001Y-145311536D01*
X152799999Y-145311536D01*
X152555670Y-145360136D01*
X152348537Y-145498537D01*
X152210136Y-145705670D01*
X152161536Y-145949999D01*
X152161536Y-146600001D01*
X152210136Y-146844330D01*
X152348537Y-147051463D01*
X152555670Y-147189864D01*
X152799999Y-147238464D01*
X153700001Y-147238464D01*
X153944330Y-147189864D01*
X154151463Y-147051463D01*
X154289864Y-146844330D01*
X154302461Y-146781000D01*
X159275409Y-146781000D01*
X160044397Y-147549988D01*
X159954884Y-148000000D01*
X160050424Y-148480312D01*
X160322499Y-148887501D01*
X160729688Y-149159576D01*
X161088761Y-149231000D01*
X161331239Y-149231000D01*
X161690312Y-149159576D01*
X162097501Y-148887501D01*
X162352412Y-148506000D01*
X162511536Y-148506000D01*
X162511536Y-148850000D01*
X162541106Y-148998659D01*
X162625314Y-149124686D01*
X162751341Y-149208894D01*
X162900000Y-149238464D01*
X164600000Y-149238464D01*
X164748659Y-149208894D01*
X164874686Y-149124686D01*
X164958894Y-148998659D01*
X164988464Y-148850000D01*
X164988464Y-148488370D01*
X165047431Y-148476641D01*
X165214806Y-148364806D01*
X165243038Y-148322553D01*
X166907559Y-146658034D01*
X166949806Y-146629806D01*
X167061641Y-146462431D01*
X167091000Y-146314835D01*
X167091000Y-146314834D01*
X167100913Y-146265000D01*
X167091000Y-146215165D01*
X167091000Y-142549834D01*
X167100913Y-142500001D01*
X167091000Y-142450165D01*
X167091000Y-138799834D01*
X167100913Y-138750000D01*
X167091000Y-138700165D01*
X167091000Y-138222412D01*
X167472501Y-137967501D01*
X167744576Y-137560312D01*
X167840116Y-137080000D01*
X167744576Y-136599688D01*
X167472501Y-136192499D01*
X167408826Y-136149952D01*
X167513807Y-136079807D01*
X167542039Y-136037554D01*
X168082557Y-135497037D01*
X168124807Y-135468807D01*
X168236642Y-135301432D01*
X168266001Y-135153836D01*
X168266001Y-135153835D01*
X168275914Y-135104002D01*
X168266001Y-135054168D01*
X168266001Y-130684834D01*
X168275914Y-130635000D01*
X168253707Y-130523360D01*
X168236642Y-130437570D01*
X168124807Y-130270195D01*
X168082556Y-130241964D01*
X167750603Y-129910011D01*
X167840116Y-129460000D01*
X167744576Y-128979688D01*
X167472501Y-128572499D01*
X167065312Y-128300424D01*
X166706239Y-128229000D01*
X166463761Y-128229000D01*
X166104688Y-128300424D01*
X165697499Y-128572499D01*
X165425424Y-128979688D01*
X165329884Y-129460000D01*
X165425424Y-129940312D01*
X165697499Y-130347501D01*
X166104688Y-130619576D01*
X166463761Y-130691000D01*
X166706239Y-130691000D01*
X167035011Y-130625603D01*
X167112443Y-130703035D01*
X167254002Y-130844593D01*
X167254002Y-130966503D01*
X167065312Y-130840424D01*
X166706239Y-130769000D01*
X166463761Y-130769000D01*
X166104688Y-130840424D01*
X165697499Y-131112499D01*
X165425424Y-131519688D01*
X165329884Y-132000000D01*
X165425424Y-132480312D01*
X165697499Y-132887501D01*
X166104688Y-133159576D01*
X166463761Y-133231000D01*
X166706239Y-133231000D01*
X167065312Y-133159576D01*
X167254001Y-133033498D01*
X167254001Y-133506502D01*
X167065312Y-133380424D01*
X166706239Y-133309000D01*
X166463761Y-133309000D01*
X166104688Y-133380424D01*
X165697499Y-133652499D01*
X165442588Y-134034000D01*
X163923424Y-134034000D01*
X163873590Y-134024087D01*
X163823756Y-134034000D01*
X163823755Y-134034000D01*
X163676159Y-134063359D01*
X163508784Y-134175194D01*
X163480553Y-134217445D01*
X161431795Y-136266204D01*
X161368028Y-136202437D01*
X161339796Y-136160184D01*
X161172421Y-136048349D01*
X161024825Y-136018990D01*
X161024824Y-136018990D01*
X160974990Y-136009077D01*
X160925156Y-136018990D01*
X157224741Y-136018990D01*
X157238464Y-135950001D01*
X157238464Y-135049999D01*
X157189864Y-134805670D01*
X157051463Y-134598537D01*
X156844330Y-134460136D01*
X156600001Y-134411536D01*
X155949999Y-134411536D01*
X155705670Y-134460136D01*
X155498537Y-134598537D01*
X155360136Y-134805670D01*
X155311536Y-135049999D01*
X155311536Y-135950001D01*
X155325259Y-136018990D01*
X155174741Y-136018990D01*
X155188464Y-135950001D01*
X155188464Y-135049999D01*
X155139864Y-134805670D01*
X155019145Y-134625000D01*
X155139864Y-134444330D01*
X155188464Y-134200001D01*
X155188464Y-133299999D01*
X155139864Y-133055670D01*
X155001463Y-132848537D01*
X154794330Y-132710136D01*
X154550001Y-132661536D01*
X154440866Y-132661536D01*
X155096402Y-132006000D01*
X160050166Y-132006000D01*
X160100000Y-132015913D01*
X160149834Y-132006000D01*
X160149835Y-132006000D01*
X160297431Y-131976641D01*
X160464806Y-131864806D01*
X160493038Y-131822553D01*
X161072556Y-131243036D01*
X161114806Y-131214806D01*
X161225035Y-131049835D01*
X161226641Y-131047432D01*
X161239951Y-130980517D01*
X161348659Y-130958894D01*
X161474686Y-130874686D01*
X161558894Y-130748659D01*
X161588464Y-130600000D01*
X161588464Y-129800000D01*
X161558894Y-129651341D01*
X161474686Y-129525314D01*
X161348659Y-129441106D01*
X161200000Y-129411536D01*
X160300000Y-129411536D01*
X160256000Y-129420288D01*
X160256000Y-127809591D01*
X161727128Y-126338464D01*
X161862060Y-126338464D01*
X161791184Y-126409340D01*
X161619000Y-126825030D01*
X161619000Y-127274970D01*
X161791184Y-127690660D01*
X162109340Y-128008816D01*
X162525030Y-128181000D01*
X162974970Y-128181000D01*
X163390660Y-128008816D01*
X163708816Y-127690660D01*
X163881000Y-127274970D01*
X163881000Y-126825030D01*
X163708816Y-126409340D01*
X163390660Y-126091184D01*
X163339518Y-126070000D01*
X165346536Y-126070000D01*
X165346536Y-127770000D01*
X165376106Y-127918659D01*
X165460314Y-128044686D01*
X165586341Y-128128894D01*
X165735000Y-128158464D01*
X167435000Y-128158464D01*
X167583659Y-128128894D01*
X167709686Y-128044686D01*
X167793894Y-127918659D01*
X167823464Y-127770000D01*
X167823464Y-126070000D01*
X167793894Y-125921341D01*
X167709686Y-125795314D01*
X167583659Y-125711106D01*
X167435000Y-125681536D01*
X165735000Y-125681536D01*
X165586341Y-125711106D01*
X165460314Y-125795314D01*
X165376106Y-125921341D01*
X165346536Y-126070000D01*
X163339518Y-126070000D01*
X162974970Y-125919000D01*
X162588464Y-125919000D01*
X162588464Y-125050000D01*
X162558894Y-124901341D01*
X162474686Y-124775314D01*
X162348659Y-124691106D01*
X162200000Y-124661536D01*
X161400000Y-124661536D01*
X161251341Y-124691106D01*
X161125314Y-124775314D01*
X161041106Y-124901341D01*
X161011536Y-125050000D01*
X161011536Y-125622872D01*
X159427445Y-127206963D01*
X159385195Y-127235194D01*
X159274868Y-127400312D01*
X159273360Y-127402569D01*
X159234087Y-127600000D01*
X159244001Y-127649839D01*
X159244001Y-128470288D01*
X159200000Y-128461536D01*
X158300000Y-128461536D01*
X158151341Y-128491106D01*
X158025314Y-128575314D01*
X157941106Y-128701341D01*
X157932621Y-128744000D01*
X157459593Y-128744000D01*
X157031000Y-128315408D01*
X157031000Y-128094649D01*
X156914912Y-127814388D01*
X157109340Y-128008816D01*
X157525030Y-128181000D01*
X157974970Y-128181000D01*
X158390660Y-128008816D01*
X158708816Y-127690660D01*
X158881000Y-127274970D01*
X158881000Y-126825030D01*
X158708816Y-126409340D01*
X158390660Y-126091184D01*
X157974970Y-125919000D01*
X157525030Y-125919000D01*
X157109340Y-126091184D01*
X156791184Y-126409340D01*
X156619000Y-126825030D01*
X156619000Y-127274970D01*
X156788372Y-127683871D01*
X156692401Y-127587900D01*
X156405351Y-127469000D01*
X156094649Y-127469000D01*
X155807599Y-127587900D01*
X155587900Y-127807599D01*
X155469000Y-128094649D01*
X155469000Y-128405351D01*
X155587900Y-128692401D01*
X155807599Y-128912100D01*
X156094649Y-129031000D01*
X156315408Y-129031000D01*
X156856965Y-129572558D01*
X156885194Y-129614806D01*
X156927442Y-129643035D01*
X157052569Y-129726641D01*
X157250000Y-129765913D01*
X157299835Y-129756000D01*
X157932621Y-129756000D01*
X157941106Y-129798659D01*
X158025314Y-129924686D01*
X158151341Y-130008894D01*
X158300000Y-130038464D01*
X159200000Y-130038464D01*
X159244000Y-130029712D01*
X159244000Y-130494000D01*
X154800233Y-130494000D01*
X154750399Y-130484087D01*
X154700565Y-130494000D01*
X154552969Y-130523359D01*
X154385594Y-130635194D01*
X154357363Y-130677445D01*
X152379054Y-132655754D01*
X152336804Y-132683985D01*
X152226855Y-132848537D01*
X152224969Y-132851360D01*
X152185696Y-133048791D01*
X152195610Y-133098630D01*
X152195608Y-139001774D01*
X152185695Y-139051608D01*
X152195608Y-139101442D01*
X152224967Y-139249038D01*
X152336802Y-139416413D01*
X152379052Y-139444644D01*
X154494001Y-141559593D01*
X154494001Y-141562472D01*
X154486536Y-141600000D01*
X154486536Y-142700000D01*
X154494000Y-142737526D01*
X154494000Y-142740408D01*
X154138781Y-143095628D01*
X153923205Y-143095628D01*
X153873371Y-143085715D01*
X153823537Y-143095628D01*
X153675941Y-143124987D01*
X153508566Y-143236822D01*
X153492053Y-143261536D01*
X152799999Y-143261536D01*
X152555670Y-143310136D01*
X152348537Y-143448537D01*
X152210136Y-143655670D01*
X152161536Y-143899999D01*
X150706000Y-143899999D01*
X150706000Y-127613284D01*
X150862499Y-127847501D01*
X151269688Y-128119576D01*
X151628761Y-128191000D01*
X151871239Y-128191000D01*
X152230312Y-128119576D01*
X152637501Y-127847501D01*
X152845864Y-127535664D01*
X153027499Y-127807501D01*
X153434688Y-128079576D01*
X153793761Y-128151000D01*
X154036239Y-128151000D01*
X154395312Y-128079576D01*
X154802501Y-127807501D01*
X155074576Y-127400312D01*
X155170116Y-126920000D01*
X155074576Y-126439688D01*
X154802501Y-126032499D01*
X154395312Y-125760424D01*
X154036239Y-125689000D01*
X153793761Y-125689000D01*
X153434688Y-125760424D01*
X153027499Y-126032499D01*
X152819136Y-126344336D01*
X152637501Y-126072499D01*
X152230312Y-125800424D01*
X151871239Y-125729000D01*
X151628761Y-125729000D01*
X151269688Y-125800424D01*
X150862499Y-126072499D01*
X150706000Y-126306716D01*
X150706000Y-123050000D01*
X161961536Y-123050000D01*
X161961536Y-123950000D01*
X161991106Y-124098659D01*
X162075314Y-124224686D01*
X162201341Y-124308894D01*
X162350000Y-124338464D01*
X163150000Y-124338464D01*
X163298659Y-124308894D01*
X163424686Y-124224686D01*
X163508894Y-124098659D01*
X163538464Y-123950000D01*
X163538464Y-123050000D01*
X163508894Y-122901341D01*
X163424686Y-122775314D01*
X163367438Y-122737063D01*
X163412100Y-122692401D01*
X163531000Y-122405351D01*
X163531000Y-122094649D01*
X163412100Y-121807599D01*
X163192401Y-121587900D01*
X162905351Y-121469000D01*
X162594649Y-121469000D01*
X162307599Y-121587900D01*
X162087900Y-121807599D01*
X161969000Y-122094649D01*
X161969000Y-122405351D01*
X162087900Y-122692401D01*
X162132562Y-122737063D01*
X162075314Y-122775314D01*
X161991106Y-122901341D01*
X161961536Y-123050000D01*
X150706000Y-123050000D01*
X150706000Y-118456000D01*
X169544000Y-118456000D01*
X169544001Y-149705091D01*
X169544001Y-149705091D01*
G37*
X169544001Y-149705091D02*
X169544000Y-151794000D01*
X150706000Y-151794000D01*
X150706000Y-143899999D01*
X152161536Y-143899999D01*
X152161536Y-144550001D01*
X152210136Y-144794330D01*
X152348537Y-145001463D01*
X152555670Y-145139864D01*
X152799999Y-145188464D01*
X153700001Y-145188464D01*
X153944330Y-145139864D01*
X154151463Y-145001463D01*
X154289864Y-144794330D01*
X154338464Y-144550001D01*
X154338464Y-144115570D01*
X154348372Y-144117541D01*
X154398206Y-144107628D01*
X154398207Y-144107628D01*
X154545803Y-144078269D01*
X154713178Y-143966434D01*
X154741410Y-143924181D01*
X155322556Y-143343036D01*
X155364806Y-143314806D01*
X155476641Y-143147431D01*
X155494000Y-143060161D01*
X155494001Y-143694451D01*
X155242499Y-143862499D01*
X154970424Y-144269688D01*
X154874884Y-144750000D01*
X154970424Y-145230312D01*
X155242499Y-145637501D01*
X155439301Y-145769000D01*
X154302461Y-145769000D01*
X154289864Y-145705670D01*
X154151463Y-145498537D01*
X153944330Y-145360136D01*
X153700001Y-145311536D01*
X152799999Y-145311536D01*
X152555670Y-145360136D01*
X152348537Y-145498537D01*
X152210136Y-145705670D01*
X152161536Y-145949999D01*
X152161536Y-146600001D01*
X152210136Y-146844330D01*
X152348537Y-147051463D01*
X152555670Y-147189864D01*
X152799999Y-147238464D01*
X153700001Y-147238464D01*
X153944330Y-147189864D01*
X154151463Y-147051463D01*
X154289864Y-146844330D01*
X154302461Y-146781000D01*
X159275409Y-146781000D01*
X160044397Y-147549988D01*
X159954884Y-148000000D01*
X160050424Y-148480312D01*
X160322499Y-148887501D01*
X160729688Y-149159576D01*
X161088761Y-149231000D01*
X161331239Y-149231000D01*
X161690312Y-149159576D01*
X162097501Y-148887501D01*
X162352412Y-148506000D01*
X162511536Y-148506000D01*
X162511536Y-148850000D01*
X162541106Y-148998659D01*
X162625314Y-149124686D01*
X162751341Y-149208894D01*
X162900000Y-149238464D01*
X164600000Y-149238464D01*
X164748659Y-149208894D01*
X164874686Y-149124686D01*
X164958894Y-148998659D01*
X164988464Y-148850000D01*
X164988464Y-148488370D01*
X165047431Y-148476641D01*
X165214806Y-148364806D01*
X165243038Y-148322553D01*
X166907559Y-146658034D01*
X166949806Y-146629806D01*
X167061641Y-146462431D01*
X167091000Y-146314835D01*
X167091000Y-146314834D01*
X167100913Y-146265000D01*
X167091000Y-146215165D01*
X167091000Y-142549834D01*
X167100913Y-142500001D01*
X167091000Y-142450165D01*
X167091000Y-138799834D01*
X167100913Y-138750000D01*
X167091000Y-138700165D01*
X167091000Y-138222412D01*
X167472501Y-137967501D01*
X167744576Y-137560312D01*
X167840116Y-137080000D01*
X167744576Y-136599688D01*
X167472501Y-136192499D01*
X167408826Y-136149952D01*
X167513807Y-136079807D01*
X167542039Y-136037554D01*
X168082557Y-135497037D01*
X168124807Y-135468807D01*
X168236642Y-135301432D01*
X168266001Y-135153836D01*
X168266001Y-135153835D01*
X168275914Y-135104002D01*
X168266001Y-135054168D01*
X168266001Y-130684834D01*
X168275914Y-130635000D01*
X168253707Y-130523360D01*
X168236642Y-130437570D01*
X168124807Y-130270195D01*
X168082556Y-130241964D01*
X167750603Y-129910011D01*
X167840116Y-129460000D01*
X167744576Y-128979688D01*
X167472501Y-128572499D01*
X167065312Y-128300424D01*
X166706239Y-128229000D01*
X166463761Y-128229000D01*
X166104688Y-128300424D01*
X165697499Y-128572499D01*
X165425424Y-128979688D01*
X165329884Y-129460000D01*
X165425424Y-129940312D01*
X165697499Y-130347501D01*
X166104688Y-130619576D01*
X166463761Y-130691000D01*
X166706239Y-130691000D01*
X167035011Y-130625603D01*
X167112443Y-130703035D01*
X167254002Y-130844593D01*
X167254002Y-130966503D01*
X167065312Y-130840424D01*
X166706239Y-130769000D01*
X166463761Y-130769000D01*
X166104688Y-130840424D01*
X165697499Y-131112499D01*
X165425424Y-131519688D01*
X165329884Y-132000000D01*
X165425424Y-132480312D01*
X165697499Y-132887501D01*
X166104688Y-133159576D01*
X166463761Y-133231000D01*
X166706239Y-133231000D01*
X167065312Y-133159576D01*
X167254001Y-133033498D01*
X167254001Y-133506502D01*
X167065312Y-133380424D01*
X166706239Y-133309000D01*
X166463761Y-133309000D01*
X166104688Y-133380424D01*
X165697499Y-133652499D01*
X165442588Y-134034000D01*
X163923424Y-134034000D01*
X163873590Y-134024087D01*
X163823756Y-134034000D01*
X163823755Y-134034000D01*
X163676159Y-134063359D01*
X163508784Y-134175194D01*
X163480553Y-134217445D01*
X161431795Y-136266204D01*
X161368028Y-136202437D01*
X161339796Y-136160184D01*
X161172421Y-136048349D01*
X161024825Y-136018990D01*
X161024824Y-136018990D01*
X160974990Y-136009077D01*
X160925156Y-136018990D01*
X157224741Y-136018990D01*
X157238464Y-135950001D01*
X157238464Y-135049999D01*
X157189864Y-134805670D01*
X157051463Y-134598537D01*
X156844330Y-134460136D01*
X156600001Y-134411536D01*
X155949999Y-134411536D01*
X155705670Y-134460136D01*
X155498537Y-134598537D01*
X155360136Y-134805670D01*
X155311536Y-135049999D01*
X155311536Y-135950001D01*
X155325259Y-136018990D01*
X155174741Y-136018990D01*
X155188464Y-135950001D01*
X155188464Y-135049999D01*
X155139864Y-134805670D01*
X155019145Y-134625000D01*
X155139864Y-134444330D01*
X155188464Y-134200001D01*
X155188464Y-133299999D01*
X155139864Y-133055670D01*
X155001463Y-132848537D01*
X154794330Y-132710136D01*
X154550001Y-132661536D01*
X154440866Y-132661536D01*
X155096402Y-132006000D01*
X160050166Y-132006000D01*
X160100000Y-132015913D01*
X160149834Y-132006000D01*
X160149835Y-132006000D01*
X160297431Y-131976641D01*
X160464806Y-131864806D01*
X160493038Y-131822553D01*
X161072556Y-131243036D01*
X161114806Y-131214806D01*
X161225035Y-131049835D01*
X161226641Y-131047432D01*
X161239951Y-130980517D01*
X161348659Y-130958894D01*
X161474686Y-130874686D01*
X161558894Y-130748659D01*
X161588464Y-130600000D01*
X161588464Y-129800000D01*
X161558894Y-129651341D01*
X161474686Y-129525314D01*
X161348659Y-129441106D01*
X161200000Y-129411536D01*
X160300000Y-129411536D01*
X160256000Y-129420288D01*
X160256000Y-127809591D01*
X161727128Y-126338464D01*
X161862060Y-126338464D01*
X161791184Y-126409340D01*
X161619000Y-126825030D01*
X161619000Y-127274970D01*
X161791184Y-127690660D01*
X162109340Y-128008816D01*
X162525030Y-128181000D01*
X162974970Y-128181000D01*
X163390660Y-128008816D01*
X163708816Y-127690660D01*
X163881000Y-127274970D01*
X163881000Y-126825030D01*
X163708816Y-126409340D01*
X163390660Y-126091184D01*
X163339518Y-126070000D01*
X165346536Y-126070000D01*
X165346536Y-127770000D01*
X165376106Y-127918659D01*
X165460314Y-128044686D01*
X165586341Y-128128894D01*
X165735000Y-128158464D01*
X167435000Y-128158464D01*
X167583659Y-128128894D01*
X167709686Y-128044686D01*
X167793894Y-127918659D01*
X167823464Y-127770000D01*
X167823464Y-126070000D01*
X167793894Y-125921341D01*
X167709686Y-125795314D01*
X167583659Y-125711106D01*
X167435000Y-125681536D01*
X165735000Y-125681536D01*
X165586341Y-125711106D01*
X165460314Y-125795314D01*
X165376106Y-125921341D01*
X165346536Y-126070000D01*
X163339518Y-126070000D01*
X162974970Y-125919000D01*
X162588464Y-125919000D01*
X162588464Y-125050000D01*
X162558894Y-124901341D01*
X162474686Y-124775314D01*
X162348659Y-124691106D01*
X162200000Y-124661536D01*
X161400000Y-124661536D01*
X161251341Y-124691106D01*
X161125314Y-124775314D01*
X161041106Y-124901341D01*
X161011536Y-125050000D01*
X161011536Y-125622872D01*
X159427445Y-127206963D01*
X159385195Y-127235194D01*
X159274868Y-127400312D01*
X159273360Y-127402569D01*
X159234087Y-127600000D01*
X159244001Y-127649839D01*
X159244001Y-128470288D01*
X159200000Y-128461536D01*
X158300000Y-128461536D01*
X158151341Y-128491106D01*
X158025314Y-128575314D01*
X157941106Y-128701341D01*
X157932621Y-128744000D01*
X157459593Y-128744000D01*
X157031000Y-128315408D01*
X157031000Y-128094649D01*
X156914912Y-127814388D01*
X157109340Y-128008816D01*
X157525030Y-128181000D01*
X157974970Y-128181000D01*
X158390660Y-128008816D01*
X158708816Y-127690660D01*
X158881000Y-127274970D01*
X158881000Y-126825030D01*
X158708816Y-126409340D01*
X158390660Y-126091184D01*
X157974970Y-125919000D01*
X157525030Y-125919000D01*
X157109340Y-126091184D01*
X156791184Y-126409340D01*
X156619000Y-126825030D01*
X156619000Y-127274970D01*
X156788372Y-127683871D01*
X156692401Y-127587900D01*
X156405351Y-127469000D01*
X156094649Y-127469000D01*
X155807599Y-127587900D01*
X155587900Y-127807599D01*
X155469000Y-128094649D01*
X155469000Y-128405351D01*
X155587900Y-128692401D01*
X155807599Y-128912100D01*
X156094649Y-129031000D01*
X156315408Y-129031000D01*
X156856965Y-129572558D01*
X156885194Y-129614806D01*
X156927442Y-129643035D01*
X157052569Y-129726641D01*
X157250000Y-129765913D01*
X157299835Y-129756000D01*
X157932621Y-129756000D01*
X157941106Y-129798659D01*
X158025314Y-129924686D01*
X158151341Y-130008894D01*
X158300000Y-130038464D01*
X159200000Y-130038464D01*
X159244000Y-130029712D01*
X159244000Y-130494000D01*
X154800233Y-130494000D01*
X154750399Y-130484087D01*
X154700565Y-130494000D01*
X154552969Y-130523359D01*
X154385594Y-130635194D01*
X154357363Y-130677445D01*
X152379054Y-132655754D01*
X152336804Y-132683985D01*
X152226855Y-132848537D01*
X152224969Y-132851360D01*
X152185696Y-133048791D01*
X152195610Y-133098630D01*
X152195608Y-139001774D01*
X152185695Y-139051608D01*
X152195608Y-139101442D01*
X152224967Y-139249038D01*
X152336802Y-139416413D01*
X152379052Y-139444644D01*
X154494001Y-141559593D01*
X154494001Y-141562472D01*
X154486536Y-141600000D01*
X154486536Y-142700000D01*
X154494000Y-142737526D01*
X154494000Y-142740408D01*
X154138781Y-143095628D01*
X153923205Y-143095628D01*
X153873371Y-143085715D01*
X153823537Y-143095628D01*
X153675941Y-143124987D01*
X153508566Y-143236822D01*
X153492053Y-143261536D01*
X152799999Y-143261536D01*
X152555670Y-143310136D01*
X152348537Y-143448537D01*
X152210136Y-143655670D01*
X152161536Y-143899999D01*
X150706000Y-143899999D01*
X150706000Y-127613284D01*
X150862499Y-127847501D01*
X151269688Y-128119576D01*
X151628761Y-128191000D01*
X151871239Y-128191000D01*
X152230312Y-128119576D01*
X152637501Y-127847501D01*
X152845864Y-127535664D01*
X153027499Y-127807501D01*
X153434688Y-128079576D01*
X153793761Y-128151000D01*
X154036239Y-128151000D01*
X154395312Y-128079576D01*
X154802501Y-127807501D01*
X155074576Y-127400312D01*
X155170116Y-126920000D01*
X155074576Y-126439688D01*
X154802501Y-126032499D01*
X154395312Y-125760424D01*
X154036239Y-125689000D01*
X153793761Y-125689000D01*
X153434688Y-125760424D01*
X153027499Y-126032499D01*
X152819136Y-126344336D01*
X152637501Y-126072499D01*
X152230312Y-125800424D01*
X151871239Y-125729000D01*
X151628761Y-125729000D01*
X151269688Y-125800424D01*
X150862499Y-126072499D01*
X150706000Y-126306716D01*
X150706000Y-123050000D01*
X161961536Y-123050000D01*
X161961536Y-123950000D01*
X161991106Y-124098659D01*
X162075314Y-124224686D01*
X162201341Y-124308894D01*
X162350000Y-124338464D01*
X163150000Y-124338464D01*
X163298659Y-124308894D01*
X163424686Y-124224686D01*
X163508894Y-124098659D01*
X163538464Y-123950000D01*
X163538464Y-123050000D01*
X163508894Y-122901341D01*
X163424686Y-122775314D01*
X163367438Y-122737063D01*
X163412100Y-122692401D01*
X163531000Y-122405351D01*
X163531000Y-122094649D01*
X163412100Y-121807599D01*
X163192401Y-121587900D01*
X162905351Y-121469000D01*
X162594649Y-121469000D01*
X162307599Y-121587900D01*
X162087900Y-121807599D01*
X161969000Y-122094649D01*
X161969000Y-122405351D01*
X162087900Y-122692401D01*
X162132562Y-122737063D01*
X162075314Y-122775314D01*
X161991106Y-122901341D01*
X161961536Y-123050000D01*
X150706000Y-123050000D01*
X150706000Y-118456000D01*
X169544000Y-118456000D01*
X169544001Y-149705091D01*
G36*
X156074996Y-140312257D02*
X156186831Y-140479633D01*
X156229084Y-140507865D01*
X156918783Y-141197565D01*
X156947014Y-141239816D01*
X157114389Y-141351651D01*
X157261985Y-141381010D01*
X157311819Y-141390923D01*
X157361653Y-141381010D01*
X158228609Y-141381010D01*
X160195154Y-143347556D01*
X160223385Y-143389807D01*
X160390760Y-143501642D01*
X160538356Y-143531001D01*
X160588190Y-143540914D01*
X160638024Y-143531001D01*
X161028428Y-143531001D01*
X160729688Y-143590424D01*
X160322499Y-143862499D01*
X160050424Y-144269688D01*
X159954884Y-144750000D01*
X160050424Y-145230312D01*
X160322499Y-145637501D01*
X160729688Y-145909576D01*
X161088761Y-145981000D01*
X161331239Y-145981000D01*
X161690312Y-145909576D01*
X162097501Y-145637501D01*
X162369576Y-145230312D01*
X162465116Y-144750000D01*
X162375603Y-144299988D01*
X162511536Y-144164056D01*
X162511536Y-145600000D01*
X162541106Y-145748659D01*
X162625314Y-145874686D01*
X162751341Y-145958894D01*
X162900000Y-145988464D01*
X164600000Y-145988464D01*
X164748659Y-145958894D01*
X164874686Y-145874686D01*
X164958894Y-145748659D01*
X164988464Y-145600000D01*
X164988464Y-143900000D01*
X164958894Y-143751341D01*
X164874686Y-143625314D01*
X164748659Y-143541106D01*
X164600000Y-143511536D01*
X164006000Y-143511536D01*
X164006000Y-142737524D01*
X164013464Y-142700000D01*
X164013464Y-141600000D01*
X163983894Y-141451341D01*
X163899686Y-141325314D01*
X163773659Y-141241106D01*
X163625000Y-141211536D01*
X163375000Y-141211536D01*
X163250000Y-141236400D01*
X163125000Y-141211536D01*
X162875000Y-141211536D01*
X162848855Y-141216737D01*
X163084592Y-140981000D01*
X164197539Y-140981000D01*
X164210136Y-141044330D01*
X164348537Y-141251463D01*
X164555670Y-141389864D01*
X164799999Y-141438464D01*
X165700001Y-141438464D01*
X165944330Y-141389864D01*
X166079000Y-141299881D01*
X166079000Y-141700119D01*
X165944330Y-141610136D01*
X165700001Y-141561536D01*
X164799999Y-141561536D01*
X164555670Y-141610136D01*
X164348537Y-141748537D01*
X164210136Y-141955670D01*
X164161536Y-142199999D01*
X164161536Y-142850001D01*
X164210136Y-143094330D01*
X164348537Y-143301463D01*
X164555670Y-143439864D01*
X164799999Y-143488464D01*
X165700001Y-143488464D01*
X165944330Y-143439864D01*
X166079001Y-143349880D01*
X166079000Y-146055407D01*
X164987791Y-147146617D01*
X164958894Y-147001341D01*
X164874686Y-146875314D01*
X164748659Y-146791106D01*
X164600000Y-146761536D01*
X162900000Y-146761536D01*
X162751341Y-146791106D01*
X162625314Y-146875314D01*
X162541106Y-147001341D01*
X162511536Y-147150000D01*
X162511536Y-147494000D01*
X162352412Y-147494000D01*
X162097501Y-147112499D01*
X161690312Y-146840424D01*
X161331239Y-146769000D01*
X161088761Y-146769000D01*
X160759988Y-146834397D01*
X159878039Y-145952447D01*
X159849806Y-145910194D01*
X159682431Y-145798359D01*
X159534835Y-145769000D01*
X159534834Y-145769000D01*
X159485000Y-145759087D01*
X159435166Y-145769000D01*
X159360699Y-145769000D01*
X159557501Y-145637501D01*
X159829576Y-145230312D01*
X159925116Y-144750000D01*
X159829576Y-144269688D01*
X159557501Y-143862499D01*
X159150312Y-143590424D01*
X158791239Y-143519000D01*
X158548761Y-143519000D01*
X158219988Y-143584397D01*
X158213037Y-143577446D01*
X158213035Y-143577443D01*
X157013464Y-142377873D01*
X157013464Y-141600000D01*
X156983894Y-141451341D01*
X156899686Y-141325314D01*
X156773659Y-141241106D01*
X156625000Y-141211536D01*
X156375000Y-141211536D01*
X156250000Y-141236400D01*
X156125000Y-141211536D01*
X155875000Y-141211536D01*
X155726341Y-141241106D01*
X155600314Y-141325314D01*
X155516106Y-141451341D01*
X155506000Y-141502147D01*
X155506000Y-141399833D01*
X155515913Y-141349999D01*
X155494252Y-141241106D01*
X155476641Y-141152569D01*
X155364806Y-140985194D01*
X155322555Y-140956963D01*
X154673229Y-140307637D01*
X156074077Y-140307637D01*
X156074996Y-140312257D01*
X156074996Y-140312257D01*
G37*
X156074996Y-140312257D02*
X156186831Y-140479633D01*
X156229084Y-140507865D01*
X156918783Y-141197565D01*
X156947014Y-141239816D01*
X157114389Y-141351651D01*
X157261985Y-141381010D01*
X157311819Y-141390923D01*
X157361653Y-141381010D01*
X158228609Y-141381010D01*
X160195154Y-143347556D01*
X160223385Y-143389807D01*
X160390760Y-143501642D01*
X160538356Y-143531001D01*
X160588190Y-143540914D01*
X160638024Y-143531001D01*
X161028428Y-143531001D01*
X160729688Y-143590424D01*
X160322499Y-143862499D01*
X160050424Y-144269688D01*
X159954884Y-144750000D01*
X160050424Y-145230312D01*
X160322499Y-145637501D01*
X160729688Y-145909576D01*
X161088761Y-145981000D01*
X161331239Y-145981000D01*
X161690312Y-145909576D01*
X162097501Y-145637501D01*
X162369576Y-145230312D01*
X162465116Y-144750000D01*
X162375603Y-144299988D01*
X162511536Y-144164056D01*
X162511536Y-145600000D01*
X162541106Y-145748659D01*
X162625314Y-145874686D01*
X162751341Y-145958894D01*
X162900000Y-145988464D01*
X164600000Y-145988464D01*
X164748659Y-145958894D01*
X164874686Y-145874686D01*
X164958894Y-145748659D01*
X164988464Y-145600000D01*
X164988464Y-143900000D01*
X164958894Y-143751341D01*
X164874686Y-143625314D01*
X164748659Y-143541106D01*
X164600000Y-143511536D01*
X164006000Y-143511536D01*
X164006000Y-142737524D01*
X164013464Y-142700000D01*
X164013464Y-141600000D01*
X163983894Y-141451341D01*
X163899686Y-141325314D01*
X163773659Y-141241106D01*
X163625000Y-141211536D01*
X163375000Y-141211536D01*
X163250000Y-141236400D01*
X163125000Y-141211536D01*
X162875000Y-141211536D01*
X162848855Y-141216737D01*
X163084592Y-140981000D01*
X164197539Y-140981000D01*
X164210136Y-141044330D01*
X164348537Y-141251463D01*
X164555670Y-141389864D01*
X164799999Y-141438464D01*
X165700001Y-141438464D01*
X165944330Y-141389864D01*
X166079000Y-141299881D01*
X166079000Y-141700119D01*
X165944330Y-141610136D01*
X165700001Y-141561536D01*
X164799999Y-141561536D01*
X164555670Y-141610136D01*
X164348537Y-141748537D01*
X164210136Y-141955670D01*
X164161536Y-142199999D01*
X164161536Y-142850001D01*
X164210136Y-143094330D01*
X164348537Y-143301463D01*
X164555670Y-143439864D01*
X164799999Y-143488464D01*
X165700001Y-143488464D01*
X165944330Y-143439864D01*
X166079001Y-143349880D01*
X166079000Y-146055407D01*
X164987791Y-147146617D01*
X164958894Y-147001341D01*
X164874686Y-146875314D01*
X164748659Y-146791106D01*
X164600000Y-146761536D01*
X162900000Y-146761536D01*
X162751341Y-146791106D01*
X162625314Y-146875314D01*
X162541106Y-147001341D01*
X162511536Y-147150000D01*
X162511536Y-147494000D01*
X162352412Y-147494000D01*
X162097501Y-147112499D01*
X161690312Y-146840424D01*
X161331239Y-146769000D01*
X161088761Y-146769000D01*
X160759988Y-146834397D01*
X159878039Y-145952447D01*
X159849806Y-145910194D01*
X159682431Y-145798359D01*
X159534835Y-145769000D01*
X159534834Y-145769000D01*
X159485000Y-145759087D01*
X159435166Y-145769000D01*
X159360699Y-145769000D01*
X159557501Y-145637501D01*
X159829576Y-145230312D01*
X159925116Y-144750000D01*
X159829576Y-144269688D01*
X159557501Y-143862499D01*
X159150312Y-143590424D01*
X158791239Y-143519000D01*
X158548761Y-143519000D01*
X158219988Y-143584397D01*
X158213037Y-143577446D01*
X158213035Y-143577443D01*
X157013464Y-142377873D01*
X157013464Y-141600000D01*
X156983894Y-141451341D01*
X156899686Y-141325314D01*
X156773659Y-141241106D01*
X156625000Y-141211536D01*
X156375000Y-141211536D01*
X156250000Y-141236400D01*
X156125000Y-141211536D01*
X155875000Y-141211536D01*
X155726341Y-141241106D01*
X155600314Y-141325314D01*
X155516106Y-141451341D01*
X155506000Y-141502147D01*
X155506000Y-141399833D01*
X155515913Y-141349999D01*
X155494252Y-141241106D01*
X155476641Y-141152569D01*
X155364806Y-140985194D01*
X155322555Y-140956963D01*
X154673229Y-140307637D01*
X156074077Y-140307637D01*
X156074996Y-140312257D01*
G04 #@! TD*
M02*
